<?xml version="1.0" encoding="UTF-8" standalone="no"?>
<svg
   height="48"
   viewBox="0 96 960.00023 960"
   width="48.000011"
   version="1.1"
   id="svg4"
   sodipodi:docname="icons.svg"
   inkscape:version="1.4.2 (f4327f4, 2025-05-13)"
   xml:space="preserve"
   inkscape:export-batch-path="C:\Users\tneuk\dev\seamlang_rust\resources\icons"
   inkscape:export-batch-name=""
   xmlns:inkscape="http://www.inkscape.org/namespaces/inkscape"
   xmlns:sodipodi="http://sodipodi.sourceforge.net/DTD/sodipodi-0.dtd"
   xmlns="http://www.w3.org/2000/svg"
   xmlns:svg="http://www.w3.org/2000/svg"><defs
   id="defs8">
        </defs>
    <sodipodi:namedview
   id="namedview6"
   pagecolor="#ffffff"
   bordercolor="#000000"
   borderopacity="0.25"
   inkscape:showpageshadow="2"
   inkscape:pageopacity="0.0"
   inkscape:pagecheckerboard="0"
   inkscape:deskcolor="#d1d1d1"
   showgrid="true"
   inkscape:zoom="8.2635655"
   inkscape:cx="1525.6732"
   inkscape:cy="89.852256"
   inkscape:window-width="3840"
   inkscape:window-height="2054"
   inkscape:window-x="-11"
   inkscape:window-y="-11"
   inkscape:window-maximized="1"
   inkscape:current-layer="svg4"><inkscape:page
   x="0"
   y="0"
   width="960.00024"
   height="960"
   id="page810"
   inkscape:export-xdpi="128"
   inkscape:export-ydpi="128"
   margin="0"
   bleed="0"
   inkscape:label="select_rect" />
        <inkscape:grid
   type="xygrid"
   id="grid889"
   originx="-10214.048"
   originy="-13.691074"
   spacingy="1"
   spacingx="1"
   units="px" />

        <inkscape:page
   x="1512.0632"
   y="8.0283804"
   width="960"
   height="960"
   id="page527"
   inkscape:export-xdpi="128"
   inkscape:export-ydpi="128"
   margin="0"
   bleed="0"
   inkscape:label="brush" />
        <inkscape:page
   x="2681.8826"
   y="21.060059"
   width="960"
   height="960"
   id="page2958"
   inkscape:export-xdpi="128"
   inkscape:export-ydpi="128"
   margin="0"
   bleed="0"
   inkscape:label="fill" />
        <inkscape:page
   x="3938.5798"
   y="29.747841"
   width="960"
   height="960"
   id="page3010"
   inkscape:export-xdpi="128"
   inkscape:export-ydpi="128"
   margin="0"
   bleed="0"
   inkscape:label="eraser" />
        <inkscape:page
   x="5178.8809"
   y="10.881684"
   width="960"
   height="960"
   id="page1"
   margin="0"
   bleed="0"
   inkscape:label="wand" />
        <inkscape:page
   x="6443.7549"
   y="-1.4046968"
   width="960"
   height="960"
   id="page2"
   margin="0"
   bleed="0"
   inkscape:export-xdpi="128"
   inkscape:export-ydpi="128"
   inkscape:label="pick" />
        <inkscape:page
   x="7778.6416"
   y="12.372272"
   width="960"
   height="960"
   id="page3"
   margin="0"
   bleed="0"
   inkscape:label="rect" />
        <inkscape:page
   x="9061.4023"
   y="38.435619"
   width="960"
   height="960"
   id="page4"
   margin="0"
   bleed="0"
   inkscape:export-xdpi="128"
   inkscape:export-ydpi="128"
   inkscape:label="line" />
        <inkscape:page
   x="10559.807"
   y="73.4384"
   width="960"
   height="960"
   id="page5"
   margin="0"
   bleed="0"
   inkscape:export-xdpi="128"
   inkscape:export-ydpi="128"
   inkscape:label="copy" />
        <inkscape:page
   x="12013.859"
   y="63.757336"
   width="960"
   height="960"
   id="page6"
   margin="0"
   bleed="0"
   inkscape:label="cut" />
        <inkscape:page
   x="13528.347"
   y="4.9830236"
   width="960"
   height="960"
   id="page7"
   margin="0"
   bleed="0"
   inkscape:label="paste" />
        <inkscape:page
   x="14989.73"
   y="112.1626"
   width="960"
   height="960"
   id="page8"
   margin="0"
   bleed="0"
   inkscape:label="undo" />
        <inkscape:page
   x="16434.102"
   y="150.8868"
   width="960"
   height="960"
   id="page9"
   margin="0"
   bleed="0"
   inkscape:label="redo" />
        <inkscape:page
   x="17992.818"
   y="164.29289"
   width="960"
   height="960"
   id="page10"
   margin="0"
   bleed="0"
   inkscape:export-xdpi="128"
   inkscape:export-ydpi="128"
   inkscape:label="folder" />
        <inkscape:page
   x="19582.406"
   y="160.56786"
   width="960"
   height="960"
   id="page11"
   margin="0"
   bleed="0"
   inkscape:label="play" />
        <inkscape:page
   x="21249.441"
   y="179.92995"
   width="960"
   height="960"
   id="page12"
   margin="0"
   bleed="0"
   inkscape:label="pause" />
        <inkscape:page
   x="22819.664"
   y="199.29205"
   width="960"
   height="960"
   id="page13"
   margin="0"
   bleed="0"
   inkscape:label="step" />
        <inkscape:page
   x="24351.164"
   y="199.29204"
   width="960"
   height="960"
   id="page14"
   margin="0"
   bleed="0"
   inkscape:export-xdpi="128"
   inkscape:export-ydpi="128"
   inkscape:label="slow_motion" />
        <inkscape:page
   x="25868.807"
   y="253.28488"
   width="960"
   height="960"
   id="page15"
   margin="0"
   bleed="0"
   inkscape:label="zoom_in" />
        <inkscape:page
   x="27461.752"
   y="253.28488"
   width="960"
   height="960"
   id="page16"
   margin="0"
   bleed="0"
   inkscape:label="zoom_out" />
        <inkscape:page
   x="28979.396"
   y="239.5938"
   width="960"
   height="960"
   id="page17"
   margin="0"
   bleed="0"
   inkscape:label="pointer" /><inkscape:page
   x="30461.299"
   y="252.61786"
   width="960.00024"
   height="960"
   id="page18"
   margin="0"
   bleed="0"
   inkscape:label="edit"
   inkscape:export-filename="edit.png"
   inkscape:export-xdpi="128"
   inkscape:export-ydpi="128" /></sodipodi:namedview>
    <path
   d="m 120.00008,617 v -83 h 60 v 83 z m 0,-170 v -83 h 60 v 83 z m 0,-171 v -60 h 60 v 60 z m 148,0 v -60 h 83 v 60 z m 171,660 v -60 h 83 v 60 z m 0,-660 v -60 h 83 v 60 z m 170,660 v -60 h 83 v 60 z m 171,0 v -60 h 60 v 60 z m 0,-148 v -83 h 60 v 83 z m 0,-171 v -83 h 60 v 83 z m 0,-170 V 276 h -171 v -60 h 231 v 231 z m -660,489 V 705 h 60 v 171 h 171 v 60 z"
   id="path812" />

    <path
   d="m -689.02987,2456.0961 q -22.753,0 -39.819,-17.0651 -17.065,-17.0652 -17.065,-39.8188 v -568.8388 q 0,-22.7536 17.065,-39.8188 17.066,-17.0651 39.819,-17.0651 h 383.967 l -56.884,56.8839 h -327.083 v 568.8388 h 568.8393 v -329.9265 l 56.883995,-56.8839 v 386.8104 q 0,22.7536 -17.065,39.8188 -17.066,17.0651 -39.818995,17.0651 z m 284.42,-341.3033 z m 172.547,-333.7188 40.7673,39.8187 -270.1983,269.2504 v 81.5336 h 80.586 l 271.1453,-271.1465 39.818995,39.8187 -287.263295,288.2117 h -161.171 v -161.171 z m 162.119295,159.2749 -162.119295,-159.2749 94.8073,-94.8065 q 16.117,-16.1171 40.112995,-16.1171 23.997,0 40.472,17.0652 l 79.638,80.5855 q 16.117,17.0652 16.117,40.2662 0,23.201 -17.065,39.3712 z"
   id="path667-2"
   style="stroke-width:0.948065" />
    <path
   d="M 1664.8573,911.23461 V 765.80963 a 145.42498,145.42498 0 1 1 145.425,145.42498 h -145.425"
   id="path837"
   style="fill:none;stroke:#000000;stroke-width:72.7125;stroke-linecap:round;stroke-linejoin:round" />
    <path
   d="M 2319.2701,256.82222 A 581.6999,581.6999 0 0 0 1853.9103,627.65591"
   id="path839"
   style="fill:none;stroke:#000000;stroke-width:72.7125;stroke-linecap:round;stroke-linejoin:round" />
    <path
   d="M 2319.2701,256.82222 A 581.6999,581.6999 0 0 1 1948.4363,722.18214"
   id="path841"
   style="fill:none;stroke:#000000;stroke-width:72.72;stroke-linecap:round;stroke-linejoin:round;stroke-dasharray:none" />
    <path
   d="m 1941.1653,474.95968 a 327.2062,327.2062 0 0 1 159.9668,159.96748"
   id="path843"
   style="fill:none;stroke:#000000;stroke-width:72.7125;stroke-linecap:round;stroke-linejoin:round" />
    <path
   d="m 3125.8451,329.16886 a 66.265297,66.265297 0 0 0 -19.752,19.08396 l -136.091,201.96728 c -55.11,92.19277 -33.94,207.69803 49.156,274.90918 82.595,66.82168 202.691,66.82168 285.258,0 83.096,-67.21115 104.266,-182.74423 49.936,-273.6295 l -136.843,-203.24696 c -20.085,-29.90562 -60.98,-38.2792 -91.664,-19.08396 z"
   stroke-width="0"
   fill="currentColor"
   id="path3014" />
    <path
   d="m 3132.5201,2479.2139 -259.246,-259.2462 q -10.539,-10.5385 -15.808,-23.1846 -5.269,-12.6462 -5.269,-26.3462 0,-13.7 5.269,-26.3461 5.269,-12.6462 15.808,-23.1846 l 242.385,-241.3308 -111.708,-111.7077 65.338,-68.5 421.539,421.5385 q 10.538,10.5384 15.281,23.1846 4.742,12.6461 4.742,26.3461 0,13.7 -4.742,26.3462 -4.743,12.6461 -15.281,23.1846 l -259.246,259.2462 q -10.539,10.5384 -23.185,15.8077 -12.646,5.2692 -26.346,5.2692 -13.7,0 -26.346,-5.2692 -12.646,-5.2693 -23.185,-15.8077 z m 49.531,-533.2462 -225.523,225.5231 h 451.046 z m 420.484,554.3231 q -37.938,0 -64.284,-26.8731 -26.346,-26.8731 -26.346,-65.8654 0,-28.4538 14.227,-53.7461 14.227,-25.2923 32.142,-49.5308 l 44.261,-56.9077 46.37,56.9077 q 16.861,24.2385 31.615,49.5308 14.754,25.2923 14.754,53.7461 0,38.9923 -27.4,65.8654 -27.4,26.8731 -65.339,26.8731 z"
   id="path3340"
   style="stroke-width:1.05385" />
    <path
   stroke="none"
   d="m 3932.9211,102.94247 h 975.204 v 975.20363 h -975.204 z"
   fill="none"
   id="path3777"
   style="stroke-width:60.9502;stroke-linecap:round;stroke-linejoin:round" />
    <g
   id="g4405"
   transform="translate(-10236.104,1.4167592)"><path
   d="m 14919.005,929.30324 h -426.651 l -171.067,-174.72399 a 40.633485,40.633485 0 0 1 0,-57.29321 l 406.335,-406.33485 a 40.633485,40.633485 0 0 1 57.293,0 l 203.167,203.16743 a 40.633485,40.633485 0 0 1 0,57.29321 l -373.828,377.89141"
   id="path3779"
   style="fill:none;stroke:#000000;stroke-width:72.72;stroke-linecap:round;stroke-linejoin:round;stroke-dasharray:none" />
        <path
   d="M 14878.372,657.05889 14622.381,401.06793"
   id="path3781"
   style="fill:none;stroke:#000000;stroke-width:72.72;stroke-linecap:round;stroke-linejoin:round;stroke-dasharray:none" /></g>
    <g
   style="fill:none;stroke:currentColor;stroke-width:2;stroke-linecap:round;stroke-linejoin:round"
   id="g2"
   transform="matrix(34.86978,0,0,34.86978,5240.4431,168.44433)"><path
   stroke="none"
   d="M 0,0 H 24 V 24 H 0 Z"
   fill="none"
   id="path1" />
        <path
   d="M 6,21 21,6 18,3 3,18 6,21"
   id="path2" />
        <path
   d="m 15,6 3,3"
   id="path3" />
        <path
   d="M 9,3 A 2,2 0 0 0 11,5 2,2 0 0 0 9,7 2,2 0 0 0 7,5 2,2 0 0 0 9,3"
   id="path4" />
        <path
   d="m 19,13 a 2,2 0 0 0 2,2 2,2 0 0 0 -2,2 2,2 0 0 0 -2,-2 2,2 0 0 0 2,-2"
   id="path5" /></g>
    <g
   style="fill:none;stroke:currentColor;stroke-width:2;stroke-linecap:round;stroke-linejoin:round"
   id="g3"
   transform="matrix(35,0,0,35,6503.7551,154.59531)"><path
   stroke="none"
   d="M 0,0 H 24 V 24 H 0 Z"
   fill="none"
   id="path1-0" />
        <path
   d="m 11,7 6,6"
   id="path2-9" />
        <path
   d="M 4,16 15.7,4.3 a 1,1 0 0 1 1.4,0 l 2.6,2.6 a 1,1 0 0 1 0,1.4 L 8,20 H 4 Z"
   id="path3-4" /></g>
    <g
   id="g4"
   transform="translate(-10224.048,-13.691074)"><circle
   style="fill:#000000;stroke:none;stroke-width:20"
   id="path973-7-1-0"
   cx="18832.689"
   cy="302.06335"
   r="72.037735" />
        <path
   style="fill:none;stroke:#000000;stroke-width:64.8074"
   d="m 18132.689,302.06335 v 600 h 700 v -600 z"
   id="path1855-9" />
        <circle
   style="fill:#000000;stroke:none;stroke-width:20"
   id="path973-7-8-8"
   cx="18132.689"
   cy="302.06335"
   r="72.037735" />
        <circle
   style="fill:#000000;stroke:none;stroke-width:20"
   id="path973-7-9-8"
   cx="18832.689"
   cy="902.06335"
   r="72.037735" />
        <circle
   style="fill:#000000;stroke:none;stroke-width:20"
   id="path973-7-18-2"
   cx="18132.689"
   cy="902.06335"
   r="72.037735" /></g>
    <g
   id="g5"
   transform="translate(-10209.048,-83.691075)"><path
   style="fill:none;stroke:#000000;stroke-width:64.8074"
   d="m 19395.449,468.12669 710,460 z"
   id="path1855-9-5"
   sodipodi:nodetypes="ccc" />
        <circle
   style="fill:#000000;stroke:none;stroke-width:20"
   id="path973-7-8-8-5"
   cx="19395.449"
   cy="468.12668"
   r="72.037735" />
        <circle
   style="fill:#000000;stroke:none;stroke-width:20"
   id="path973-7-9-8-1"
   cx="20105.449"
   cy="928.12671"
   r="72.037735" /></g>
    <path
   d="m 10944.247,878.77739 q -31.533,0 -53.99,-22.4561 -22.456,-22.4562 -22.456,-53.9903 V 343.65322 q 0,-31.53417 22.456,-53.99024 22.457,-22.45616 53.99,-22.45616 h 344.01 q 31.533,0 53.99,22.45616 22.456,22.45607 22.456,53.99024 v 458.67777 q 0,31.5341 -22.456,53.9903 -22.457,22.4561 -53.99,22.4561 z m 0,-76.4464 h 344.01 V 343.65322 h -344.01 z M 10791.355,1031.67 q -31.534,0 -53.99,-22.4562 -22.456,-22.45597 -22.456,-53.99021 V 420.09943 h 76.446 v 535.12416 h 420.456 V 1031.67 Z m 152.892,-229.33901 V 343.65322 Z"
   id="path1-09"
   style="stroke-width:0.955578" />
    <path
   d="m 12732.121,946.0951 -238.263,-238.2627 -79.988,79.9882 q 6.808,12.7641 9.36,27.23 2.553,14.466 2.553,28.9319 0,56.1619 -39.994,96.156 -39.994,39.99408 -96.156,39.99408 -56.162,0 -96.156,-39.99408 -39.994,-39.9941 -39.994,-96.156 0,-56.1619 39.994,-96.156 39.994,-39.9941 96.156,-39.9941 14.466,0 28.932,2.5528 14.466,2.5528 27.23,9.3603 l 79.988,-79.9881 -79.988,-79.9882 q -12.764,6.8075 -27.23,9.3603 -14.466,2.5528 -28.932,2.5528 -56.162,0 -96.156,-39.9941 -39.994,-39.9941 -39.994,-96.156 0,-56.1619 39.994,-96.15599 39.994,-39.9941 96.156,-39.9941 56.162,0 96.156,39.9941 39.994,39.99409 39.994,96.15599 0,14.466 -2.553,28.9319 -2.552,14.466 -9.36,27.23 l 420.363,420.3635 v 34.0375 z m -136.15,-340.3753 -68.075,-68.075 204.225,-204.22516 h 102.112 v 34.03756 z m -306.338,-102.1125 q 28.081,0 48.078,-19.9971 19.997,-19.997 19.997,-48.078 0,-28.0809 -19.997,-48.078 -19.997,-19.997 -48.078,-19.997 -28.081,0 -48.078,19.997 -19.997,19.9971 -19.997,48.078 0,28.081 19.997,48.078 19.997,19.9971 48.078,19.9971 z m 204.225,153.1688 q 6.808,0 11.913,-5.1056 5.106,-5.1056 5.106,-11.9131 0,-6.8075 -5.106,-11.9132 -5.105,-5.1056 -11.913,-5.1056 -6.807,0 -11.913,5.1056 -5.106,5.1057 -5.106,11.9132 0,6.8075 5.106,11.9131 5.106,5.1056 11.913,5.1056 z m -204.225,255.2815 q 28.081,0 48.078,-19.9971 19.997,-19.997 19.997,-48.078 0,-28.081 -19.997,-48.078 -19.997,-19.997 -48.078,-19.997 -28.081,0 -48.078,19.997 -19.997,19.997 -19.997,48.078 0,28.081 19.997,48.078 19.997,19.9971 48.078,19.9971 z"
   id="path1-4"
   style="stroke-width:0.850938" />
    <path
   d="m 13755.399,942.33383 q -29.811,0 -51.041,-21.22937 -21.229,-21.22935 -21.229,-51.04075 V 364.17252 q 0,-29.81144 21.229,-51.0408 21.23,-21.22937 51.041,-21.22937 h 150.864 q 9.937,-31.6182 38.845,-51.94418 28.908,-20.32599 63.237,-20.32599 36.135,0 64.591,20.32599 28.457,20.32598 38.394,51.94418 h 149.96 q 29.812,0 51.041,21.22937 21.23,21.22936 21.23,51.0408 v 505.89119 q 0,29.8114 -21.23,51.04075 -21.229,21.22937 -51.041,21.22937 z m 0,-72.27012 h 505.891 V 364.17252 h -72.27 v 108.40526 h -361.351 V 364.17252 h -72.27 z m 252.946,-505.89119 q 15.357,0 25.746,-10.38883 10.389,-10.38884 10.389,-25.74625 0,-15.35741 -10.389,-25.74625 -10.389,-10.38884 -25.746,-10.38884 -15.358,0 -25.746,10.38884 -10.389,10.38884 -10.389,25.74625 0,15.35741 10.389,25.74625 10.388,10.38883 25.746,10.38883 z"
   id="path1-8"
   style="stroke-width:0.903377" />
    <path
   d="m 15264.623,995.82383 v -82.04296 h 291.251 q 64.61,0 112.296,-41.02149 47.687,-41.02152 47.687,-102.55377 0,-61.53225 -47.687,-102.55377 -47.686,-41.02149 -112.296,-41.02149 h -258.436 l 106.657,106.65591 -57.43,57.4301 -205.108,-205.10753 205.108,-205.10751 57.43,57.4301 -106.657,106.65591 h 258.436 q 99.477,0 170.752,64.60888 71.275,64.60885 71.275,161.0094 0,96.40053 -71.275,161.0094 -71.275,64.60882 -170.752,64.60882 z"
   id="path1-82"
   style="stroke-width:1.02553" />
    <path
   d="m 17119.206,1034.548 v -82.0429 h -291.251 q -64.61,0 -112.296,-41.02149 -47.687,-41.02152 -47.687,-102.55377 0,-61.53225 47.687,-102.55377 47.686,-41.02149 112.296,-41.02149 h 258.436 l -106.657,106.65591 57.43,57.4301 205.108,-205.10753 -205.108,-205.10751 -57.43,57.4301 106.657,106.65591 h -258.436 q -99.477,0 -170.752,64.60888 -71.275,64.60885 -71.275,161.0094 0,96.40053 71.275,161.0094 71.275,64.60876 170.752,64.60876 z"
   id="path1-82-4"
   style="stroke-width:1.02553" />
    <path
   d="m 18192.772,1020.3379 q -28.879,0 -49.445,-20.56587 -20.566,-20.56573 -20.566,-49.4454 V 530.2591 q 0,-28.87965 20.566,-49.44546 20.566,-20.5658 49.445,-20.5658 h 210.034 l 70.011,70.01126 h 280.045 q 28.881,0 49.446,20.5658 20.566,20.56581 20.566,49.44546 v 350.05627 q 0,28.87967 -20.566,49.4454 -20.565,20.56587 -49.446,20.56587 z m 0,-70.01127 h 560.09 V 600.27036 h -308.924 l -70.011,-70.01126 h -181.155 z m 0,0 V 530.2591 Z"
   id="path1-094"
   style="stroke-width:0.87514" />
    <path
   d="M 19823.541,974.63036 V 498.50518 q 0,-23.54341 15.531,-37.66298 15.529,-14.11967 36.252,-14.11967 6.779,0 13.735,1.79501 6.972,1.77894 13.75,5.35289 l 374.532,239.29672 q 11.971,8.38198 17.951,19.11999 5.977,10.72195 5.977,24.28069 0,13.55863 -5.977,24.28057 -5.98,10.73802 -17.951,19.12009 l -374.532,239.29671 q -6.778,3.574 -13.75,5.3529 -6.956,1.7951 -13.735,1.7951 -20.723,0 -36.252,-14.1199 -15.531,-14.11957 -15.531,-37.66294 z m 64.106,-238.06253 z m 0,214.75953 339.034,-214.75953 -339.034,-214.75962 z"
   id="path1-0948"
   style="stroke-width:1.60269" />
    <path
   d="m 21863.583,1077.8732 q -21.57,0 -37.613,-16.0435 -16.044,-16.0435 -16.044,-37.6137 V 487.64383 q 0,-21.5702 16.044,-37.6137 16.043,-16.0435 37.613,-16.0435 h 134.143 q 21.571,0 37.614,16.0435 16.044,16.0435 16.044,37.6137 V 1024.216 q 0,21.5702 -16.044,37.6137 -16.043,16.0435 -37.614,16.0435 z m -402.429,0 q -21.57,0 -37.613,-16.0435 -16.044,-16.0435 -16.044,-37.6137 V 487.64383 q 0,-21.5702 16.044,-37.6137 16.043,-16.0435 37.613,-16.0435 h 134.143 q 21.57,0 37.614,16.0435 16.044,16.0435 16.044,37.6137 V 1024.216 q 0,21.5702 -16.044,37.6137 -16.044,16.0435 -37.614,16.0435 z m 402.429,-53.6572 h 134.143 V 487.64383 h -134.143 z m -402.429,0 h 134.143 V 487.64383 h -134.143 z m 0,-536.57217 V 1024.216 Z m 402.429,0 V 1024.216 Z"
   id="path1-824"
   style="stroke-width:1.34143" />
    <path
   d="m 23296.214,1090.2275 q -51.963,0 -88.448,-36.3728 -36.486,-36.3728 -36.486,-88.33567 0,-51.96292 36.373,-88.44806 36.373,-36.48514 88.336,-36.48514 51.963,0 88.448,36.3728 36.485,36.3728 36.485,88.33572 0,51.96285 -36.373,88.44795 -36.372,36.4852 -88.335,36.4852 z m 271.997,-399.42669 q -36.098,-77.96311 -108.445,-126.35616 -72.358,-48.39304 -163.665,-48.39304 -95.787,0 -171.666,54.64657 -75.878,54.65905 -108.22,140.36105 -3.769,11.73316 -11.633,20.6953 -7.864,8.97462 -19.285,8.97462 -12.095,0 -18.623,-9.46142 -6.528,-9.44894 -3.17,-20.10864 33.027,-107.15871 123.135,-176.09727 90.109,-68.93856 208.214,-68.93856 93.042,0 169.469,44.49864 76.428,44.51112 122.712,116.80736 V 485.32071 q 0,-10.60977 7.177,-17.78697 7.19,-7.1772 17.812,-7.1772 10.635,0 17.787,7.1772 7.152,7.1772 7.152,17.78697 v 215.07882 q 0,17.1379 -11.596,28.73376 -11.596,11.59586 -28.734,11.59586 h -215.078 q -10.61,0 -17.787,-7.18968 -7.178,-7.18968 -7.178,-17.81194 0,-10.62225 7.178,-17.77449 7.177,-7.15223 17.787,-7.15223 z"
   id="path1-09488"
   style="stroke-width:1.24821" />
    <path
   d="m 24784.156,901.15751 162.001,-104.3512 q 12.341,-7.8752 12.341,-21.5142 0,-13.639 -12.341,-21.5142 l -162.001,-104.3512 q -12.583,-8.9309 -26.105,-1.5835 -13.524,7.3473 -13.524,23.0976 v 208.7025 q 0,15.7504 13.524,23.0977 13.522,7.3473 26.105,-1.5835 z m -312.23,-83.6393 q 9.016,0 15.55,6.3339 6.534,6.3339 9.374,16.162 7.147,34.0236 19.783,65.4082 12.626,31.3846 31.543,58.9898 5.437,7.7169 5.078,16.7322 -0.37,9.01522 -7.348,15.99312 -5.933,5.93267 -14.293,4.87707 -8.371,-1.0557 -13.808,-8.28677 -26.475,-36.77902 -41.899,-73.44182 -15.433,-36.6628 -22.253,-80.029 -1.541,-8.7724 3.864,-15.7503 5.394,-6.9884 14.409,-6.9884 z m 73.98,-263.2586 q 6.978,6.9778 7.221,15.9931 0.242,9.0153 -4.951,16.4787 -18.917,27.6159 -31.142,58.7154 -12.224,31.0995 -19.371,65.1233 -2.839,9.8281 -9.786,16.1619 -6.935,6.334 -15.951,6.334 -9.015,0 -14.409,-7.5163 -5.405,-7.5057 -3.621,-16.2781 6.819,-42.5534 21.841,-78.4034 15.033,-35.8499 41.255,-72.6394 5.448,-7.2206 13.808,-8.973 8.361,-1.7419 15.106,5.0038 z m 59.117,502.23709 q 6.978,-7.2207 16.521,-7.0623 9.543,0.1689 17.26,5.6055 26.792,18.9173 58.589,32.0708 31.786,13.164 66.379,20.3107 9.015,2.0268 14.938,8.8463 5.933,6.8195 5.933,15.8348 0,9.0153 -7.106,14.2936 -7.104,5.2782 -15.876,2.9242 -45.795,-8.4453 -80.757,-23.4672 -34.953,-15.0219 -71.173,-40.1993 -7.474,-5.4366 -9.458,-13.8079 -1.995,-8.3607 4.75,-15.3492 z m 181.731,-638.01519 q 0,9.8281 -6.208,16.236 -6.218,6.4183 -16.046,9.258 -34.836,7.1468 -66.336,19.7724 -31.511,12.6362 -58.305,31.7963 -7.716,5.4366 -16.858,5.0777 -9.132,-0.3695 -16.109,-7.3474 -6.177,-6.1755 -5.004,-14.663 1.182,-8.4874 8.656,-13.9241 37.022,-25.1772 72.227,-40.0725 35.207,-14.9058 81.814,-23.351 8.772,-1.5413 15.465,3.3359 6.704,4.8665 6.704,13.8817 z m 380.034,356.8106 q 0,-123.353 -78.244,-216.2821 -78.235,-92.9396 -197.935,-116.3329 -8.519,-1.784 -13.967,-8.6035 -5.437,-6.8195 -5.437,-15.5921 0,-8.7724 6.736,-14.1668 6.745,-5.405 15.032,-3.8637 137.235,23.066 226.638,128.3884 89.403,105.3225 89.403,246.4527 0,141.1301 -89.403,246.45249 -89.403,105.3225 -226.638,128.3885 -8.287,1.5412 -15.032,-3.8637 -6.736,-5.3944 -6.736,-14.1669 0,-8.7724 5.437,-15.5919 5.448,-6.8195 13.967,-8.6036 119.7,-23.3932 197.935,-116.33287 78.244,-92.92912 78.244,-216.28202 z"
   id="path1-2"
   style="stroke-width:1.05565" />
    <path
   d="m 26219.622,745.06796 h -62.552 q -9.599,0 -16.092,-6.50472 -6.494,-6.50471 -6.494,-16.11498 0,-9.61027 6.494,-16.0811 6.493,-6.47084 16.092,-6.47084 h 62.552 v -62.54014 q 0,-9.59897 6.504,-16.09239 6.494,-6.49343 16.115,-6.49343 9.611,0 16.081,6.49343 6.471,6.49342 6.471,16.09239 v 62.54014 h 62.54 q 9.599,0 16.093,6.50471 6.493,6.50472 6.493,16.11499 0,9.61026 -6.493,16.0811 -6.494,6.47084 -16.093,6.47084 h -62.54 v 62.54013 q 0,9.59898 -6.505,16.0924 -6.504,6.49342 -16.115,6.49342 -9.61,0 -16.081,-6.49342 -6.47,-6.49342 -6.47,-16.0924 z m 22.585,236.28155 q -108.524,0 -183.701,-75.13173 -75.166,-75.13173 -75.166,-183.58883 0,-108.4684 75.132,-183.74694 75.131,-75.26724 183.589,-75.26724 108.468,0 183.747,75.1656 75.267,75.1769 75.267,183.70177 0,47.08014 -16.68,91.12249 -16.68,44.04235 -43.782,75.31241 l 266.862,266.86286 q 6.336,6.3466 6.776,15.5503 0.429,9.215 -6.776,16.4199 -7.216,7.2049 -15.991,7.2049 -8.763,0 -15.979,-7.2049 l -266.863,-266.86283 q -33.878,28.84209 -77.921,44.65217 -44.042,15.81007 -88.514,15.81007 z m 0,-45.17164 q 89.903,0 151.8,-61.89644 61.896,-61.88514 61.896,-151.79929 0,-89.91415 -61.896,-151.7993 -61.897,-61.89643 -151.8,-61.89643 -89.914,0 -151.799,61.89643 -61.896,61.88515 -61.896,151.7993 0,89.91415 61.896,151.79929 61.885,61.89644 151.799,61.89644 z"
   id="path1-094882"
   style="stroke-width:1.12929" />
    <path
   d="m 27755.29,745.09397 q -9.595,0 -16.087,-6.50271 -6.491,-6.50271 -6.491,-16.11001 0,-9.6073 6.491,-16.07614 6.492,-6.46884 16.087,-6.46884 h 159.791 q 9.596,0 16.087,6.50271 6.492,6.5027 6.492,16.11001 0,9.6073 -6.492,16.07614 -6.491,6.46884 -16.087,6.46884 z m 79.896,236.20861 q -108.491,0 -183.645,-75.10852 -75.143,-75.10854 -75.143,-183.53218 0,-108.43492 75.108,-183.69023 75.109,-75.24402 183.533,-75.24402 108.435,0 183.69,75.14241 75.244,75.15371 75.244,183.64508 0,47.06561 -16.674,91.09437 -16.675,44.02876 -43.769,75.28917 l 266.78,266.78044 q 6.333,6.3447 6.773,15.5455 0.43,9.2122 -6.773,16.4149 -7.214,7.2026 -15.986,7.2026 -8.761,0 -15.975,-7.2026 l -266.78,-266.78047 q -33.869,28.83319 -77.897,44.63835 -44.029,15.8052 -88.486,15.8052 z m 0,-45.15767 q 89.875,0 151.752,-61.87734 61.877,-61.86605 61.877,-151.75245 0,-89.8864 -61.877,-151.75245 -61.877,-61.87733 -151.752,-61.87733 -89.887,0 -151.753,61.87733 -61.878,61.86605 -61.878,151.75245 0,89.8864 61.878,151.75245 61.866,61.87734 151.753,61.87734 z"
   id="path1-45"
   style="stroke-width:1.12894" />
    <path
   stroke="none"
   d="m 29185.952,561.93369 h 480 v 480.00001 h -480 z"
   fill="none"
   id="path1-1"
   style="stroke-width:20" />
    <g
   style="fill:none;stroke:currentColor;stroke-width:1.31665;stroke-linecap:round;stroke-linejoin:round;stroke-dasharray:none"
   id="g17"
   transform="matrix(39.362103,0,0,39.362103,28987.052,343.24856)"><path
   stroke="none"
   d="M 0,0 H 24 V 24 H 0 Z"
   fill="none"
   id="path1-11"
   style="stroke-width:1.31665;stroke-dasharray:none" />
        <path
   d="m 7.904,17.563 a 1.2,1.2 0 0 0 2.228,0.308 l 2.09,-3.093 4.907,4.907 a 1.067,1.067 0 0 0 1.509,0 l 1.047,-1.047 a 1.067,1.067 0 0 0 0,-1.509 l -4.907,-4.907 3.113,-2.09 A 1.2,1.2 0 0 0 17.582,7.904 L 4,4 Z"
   id="path2-5"
   style="stroke-width:1.31665;stroke-dasharray:none" /></g><path
   d="m 30625.779,1215.0339 q -29.893,0 -49.915,-20.0221 -20.022,-20.0222 -20.022,-49.9146 V 592.31357 q 0,-29.89248 20.022,-49.9146 20.022,-20.02212 49.915,-20.02212 h 310.775 q 10.823,0 16.235,6.87246 5.411,6.86164 5.411,14.77308 0,7.91144 -5.541,14.77307 -5.531,6.87246 -16.353,6.87246 h -310.527 q -10.001,0 -18.323,8.32271 -8.323,8.32271 -8.323,18.32294 v 552.78363 q 0,10.0002 8.323,18.3229 8.322,8.3227 18.323,8.3227 h 552.783 q 10.001,0 18.323,-8.3227 8.323,-8.3227 8.323,-18.3229 V 830.15469 q 0,-10.82277 6.872,-16.23415 6.862,-5.41138 14.774,-5.41138 7.911,0 14.773,5.41138 6.872,5.41138 6.872,16.23415 v 314.94251 q 0,29.8924 -20.022,49.9146 -20.022,20.0221 -49.915,20.0221 z m 276.392,-346.32852 z m -86.583,51.61378 v -49.2003 q 0,-13.98301 5.661,-27.17597 5.66,-13.20377 15.065,-22.60875 l 366.481,-366.4697 q 7.153,-7.16467 15.065,-9.91366 7.911,-2.74898 16.656,-2.74898 8.16,0 15.942,2.74898 7.782,2.74899 14.113,9.0803 l 48.118,46.70024 q 6.905,7.16467 10.487,15.7796 3.582,8.61492 3.582,17.35971 0,8.73398 -2.629,16.51554 -2.62,7.7924 -9.773,14.94625 l -368.981,368.9806 q -9.405,9.405 -22.598,15.18431 -13.193,5.7902 -27.187,5.7902 h -45.033 q -15.076,0 -25.022,-9.94611 -9.947,-9.9462 -9.947,-25.02226 z m 468.128,-385.626 -48.118,-50.60725 z m -424.837,377.30329 h 47.285 l 288.557,-288.5566 -23.648,-23.63692 -26.386,-25.31445 -285.808,285.80761 z m 312.194,-312.19352 -26.386,-25.31445 26.386,25.31445 23.648,23.63692 z"
   id="path1-0948824"
   style="stroke-width:1.08228" /></svg>
