<?xml version="1.0" encoding="UTF-8" standalone="no"?>
<svg
   height="48"
   viewBox="0 96 960 960"
   width="48"
   version="1.1"
   id="svg4"
   sodipodi:docname="icons.svg"
   inkscape:version="1.2.2 (732a01da63, 2022-12-09)"
   xml:space="preserve"
   xmlns:inkscape="http://www.inkscape.org/namespaces/inkscape"
   xmlns:sodipodi="http://sodipodi.sourceforge.net/DTD/sodipodi-0.dtd"
   xmlns="http://www.w3.org/2000/svg"
   xmlns:svg="http://www.w3.org/2000/svg"><defs
   id="defs8">
        </defs>
    <sodipodi:namedview
   id="namedview6"
   pagecolor="#ffffff"
   bordercolor="#000000"
   borderopacity="0.25"
   inkscape:showpageshadow="2"
   inkscape:pageopacity="0.0"
   inkscape:pagecheckerboard="0"
   inkscape:deskcolor="#d1d1d1"
   showgrid="true"
   inkscape:zoom="18.416666"
   inkscape:cx="610.28961"
   inkscape:cy="25.085974"
   inkscape:window-width="1920"
   inkscape:window-height="1129"
   inkscape:window-x="-8"
   inkscape:window-y="-8"
   inkscape:window-maximized="1"
   inkscape:current-layer="svg4"><inkscape:page
   x="0"
   y="0"
   width="960"
   height="960"
   id="page377"
   inkscape:export-filename="line.png"
   inkscape:export-xdpi="64"
   inkscape:export-ydpi="64" /><inkscape:page
   x="1048.4569"
   y="1.4264898"
   width="960"
   height="960"
   id="page379"
   inkscape:export-filename="move.png"
   inkscape:export-xdpi="64"
   inkscape:export-ydpi="64" /><inkscape:page
   x="2259.5337"
   y="4.6073708e-07"
   width="960.00024"
   height="960"
   id="page810"
   inkscape:export-filename="select.png"
   inkscape:export-xdpi="64"
   inkscape:export-ydpi="64" /><inkscape:page
   x="3395.0068"
   y="-2.8529797"
   width="960.00024"
   height="960"
   id="page850"
   inkscape:export-filename="polygon.png"
   inkscape:export-xdpi="64"
   inkscape:export-ydpi="64" /><inkscape:grid
   type="xygrid"
   id="grid889" /><inkscape:page
   x="4536.1855"
   y="4.6675842e-07"
   width="960"
   height="960"
   id="page1681"
   inkscape:export-filename="sprite.png"
   inkscape:export-xdpi="64"
   inkscape:export-ydpi="64" /><inkscape:page
   x="5665.9526"
   y="2.8529797"
   width="960"
   height="960"
   id="page2804"
   inkscape:export-filename="pointer.png"
   inkscape:export-xdpi="64"
   inkscape:export-ydpi="64" /><inkscape:page
   x="6854.0356"
   y="0"
   width="960"
   height="960"
   id="page484"
   inkscape:export-filename="transform.png"
   inkscape:export-xdpi="64"
   inkscape:export-ydpi="64" />
        <inkscape:page
   x="8128.1079"
   y="8.6877823"
   width="959.99951"
   height="960"
   id="page680"
   inkscape:export-filename="resize.png"
   inkscape:export-xdpi="64"
   inkscape:export-ydpi="64" />
        <inkscape:page
   x="9380.6943"
   y="6.1431904"
   width="960"
   height="960"
   id="page490"
   inkscape:export-filename="edit_rect.png"
   inkscape:export-xdpi="64"
   inkscape:export-ydpi="64" /><inkscape:page
   x="10534.573"
   y="16.344776"
   width="960"
   height="960"
   id="page1492"
   inkscape:export-filename="multi_line.png"
   inkscape:export-xdpi="64"
   inkscape:export-ydpi="64" /><inkscape:page
   x="11726.111"
   y="21.719456"
   width="960"
   height="960"
   id="page527"
   inkscape:export-filename="brush.png"
   inkscape:export-xdpi="64"
   inkscape:export-ydpi="64" /></sodipodi:namedview>
    <path
   d="m 1528.457,977.4265 -163,-163 44,-44 89,89 v -189 h 60 v 189 l 89,-89 44,44 z m -242,-242 -158.0001,-158 159.0001,-159 44,44 -85,85 h 189 v 60 h -189 l 84,84 z m 484,0 -44,-44 84,-84 h -188 v -60 h 188 l -84,-84 44,-44 158,158 z m -272,-252 v -188 l -84,84 -44,-44 158,-158 158,158 -44,44 -84,-84 v 188 z"
   id="path431" /><path
   d="m 2379.5338,617 v -83 h 60 v 83 z m 0,-170 v -83 h 60 v 83 z m 0,-171 v -60 h 60 v 60 z m 148,0 v -60 h 83 v 60 z m 171,660 v -60 h 83 v 60 z m 0,-660 v -60 h 83 v 60 z m 170,660 v -60 h 83 v 60 z m 171,0 v -60 h 60 v 60 z m 0,-148 v -83 h 60 v 83 z m 0,-171 v -83 h 60 v 83 z m 0,-170 V 276 h -171 v -60 h 231 v 231 z m -660,489 V 705 h 60 v 171 h 171 v 60 z"
   id="path812" /><g
   id="g1941"><circle
     style="fill:#000000;stroke:none;stroke-width:20"
     id="path973-7"
     cx="4025.0068"
     cy="273.147"
     r="72.037735" /><circle
     style="fill:#000000;stroke:none;stroke-width:20"
     id="path973-7-0"
     cx="4225.0068"
     cy="573.14703"
     r="72.037735" /><circle
     style="fill:#000000;stroke:none;stroke-width:20"
     id="path973-7-6"
     cx="4025.0068"
     cy="873.14703"
     r="72.037735" /><circle
     style="fill:#000000;stroke:none;stroke-width:20"
     id="path973-7-03"
     cx="3725.0068"
     cy="873.14703"
     r="72.037735" /><circle
     style="fill:#000000;stroke:none;stroke-width:20"
     id="path973-7-4"
     cx="3525.0068"
     cy="573.14703"
     r="72.037735" /><circle
     style="fill:#000000;stroke-width:20"
     id="path973-0-4"
     cx="3725.0068"
     cy="273.147"
     r="72.037735" /><path
     style="fill:none;stroke:#000000;stroke-width:60"
     d="m 3725.0068,273.14701 h 300 l 200,300 -200,300 h -300 l -200,-300 z"
     id="path994"
     sodipodi:nodetypes="ccccccc" /></g><circle
   style="fill:#000000;stroke:none;stroke-width:20"
   id="path973-7-1"
   cx="5366.1855"
   cy="276"
   r="72.037735" /><path
   style="fill:none;stroke:#000000;stroke-width:64.8074"
   d="m 4666.1855,276 v 600 h 700 V 276 Z"
   id="path1855" /><path
   id="path1683"
   d="m 5113.6855,575.28493 -131.9922,171.01561 -93.0078,-126.99218 -116.9922,151.99219 h 488.9844 z" /><circle
   style="fill:#000000;stroke:none;stroke-width:20"
   id="path973-7-8"
   cx="4666.1855"
   cy="276"
   r="72.037735" /><circle
   style="fill:#000000;stroke:none;stroke-width:20"
   id="path973-7-9"
   cx="5366.1855"
   cy="876"
   r="72.037735" /><circle
   style="fill:#000000;stroke:none;stroke-width:20"
   id="path973-7-18"
   cx="4666.1855"
   cy="876"
   r="72.037735" /><path
   style="fill:none;stroke:#000000;stroke-width:60;stroke-dasharray:none"
   d="m 5927.1059,831.81594 137.7498,-68.87481 68.8748,137.74971 137.7497,-68.8749 -68.8749,-137.74967 137.7498,-68.87487 -413.2492,-344.37428 z"
   id="path2796"
   sodipodi:nodetypes="cccccccc" /><path
   style="fill:#000000;stroke:none;stroke-width:72"
   d="m 7034.0356,276 v 120 h 240 v 480 h 120 V 396 h 240 V 276 h -600"
   id="path590" />
    <g
   id="g798"
   transform="translate(6.111966,0.17694373)"><path
   d="m 8285.1439,544.90437 v 316.85182 a 39.606478,39.606478 0 0 0 39.6065,39.60648 h 316.8518 M 8285.1439,346.87198 v -39.60647 a 39.606478,39.606478 0 0 1 39.6065,-39.60648 h 39.6064 m 198.0324,0 h 79.213 m 198.0324,0 h 39.6064 a 39.606478,39.606478 0 0 1 39.6065,39.60648 v 39.60647 m 0,198.03239 v 79.21296 m 0,198.03239 v 39.60647 a 39.606478,39.606478 0 0 1 -39.6065,39.60648 h -39.6064"
   id="path778"
   style="fill:none;stroke:#000000;stroke-width:79.213;stroke-linecap:round;stroke-linejoin:round" />
        <path
   d="m 8285.1439,584.51085 h 277.2453 a 39.606478,39.606478 0 0 1 39.6065,39.60648 v 277.24534"
   id="path780"
   style="fill:none;stroke:#000000;stroke-width:79.213;stroke-linecap:round;stroke-linejoin:round" /></g>
    <path
   d="m 9525.0795,975.11604 q -22.7536,0 -39.8187,-17.06517 -17.0652,-17.06516 -17.0652,-39.81872 V 349.39328 q 0,-22.75355 17.0652,-39.81872 17.0651,-17.06516 39.8187,-17.06516 h 383.9662 l -56.8839,56.88388 h -327.0823 v 568.83887 h 568.8385 V 588.30561 l 56.884,-56.88389 v 386.81043 q 0,22.75356 -17.065,39.81872 -17.066,17.06517 -39.819,17.06517 z m 284.4194,-341.30332 z m 172.5475,-333.71881 40.7666,39.81872 -270.198,269.2504 v 81.53357 h 80.5855 l 271.1455,-271.14652 39.819,39.81872 -287.2628,288.21169 H 9695.7311 V 586.40948 Z m 162.1186,159.27489 -162.1186,-159.27489 94.8066,-94.80648 q 16.117,-16.1171 40.113,-16.1171 23.997,0 40.472,17.06517 l 79.638,80.58551 q 16.117,17.06516 16.117,40.2662 0,23.20105 -17.065,39.37124 z"
   id="path667"
   style="stroke-width:0.948065" /><path
   d="m 11436.33,3451.5067 q -22.753,0 -39.819,-17.0651 -17.065,-17.0652 -17.065,-39.8188 V 2825.784 q 0,-22.7536 17.065,-39.8188 17.066,-17.0651 39.819,-17.0651 h 383.967 l -56.884,56.8839 h -327.083 v 568.8388 h 568.839 v -329.9265 l 56.884,-56.8839 v 386.8104 q 0,22.7536 -17.065,39.8188 -17.066,17.0651 -39.819,17.0651 z m 284.42,-341.3033 z m 172.547,-333.7188 40.767,39.8187 -270.198,269.2504 v 81.5336 h 80.586 l 271.145,-271.1465 39.819,39.8187 -287.263,288.2117 h -161.171 v -161.171 z m 162.119,159.2749 -162.119,-159.2749 94.807,-94.8065 q 16.117,-16.1171 40.113,-16.1171 23.997,0 40.472,17.0652 l 79.638,80.5855 q 16.117,17.0652 16.117,40.2662 0,23.201 -17.065,39.3712 z"
   id="path667-2"
   style="stroke-width:0.948065" /><g
   id="g1086"
   transform="translate(-20,-20)"><circle
     style="fill:#000000;stroke:none;stroke-width:20"
     id="path973"
     cx="800"
     cy="896"
     r="72.037735" /><circle
     style="fill:#000000;stroke:none;stroke-width:20"
     id="path973-5"
     cx="200"
     cy="896"
     r="72.037735" /><circle
     style="fill:#000000;stroke-width:20"
     id="path973-0"
     cx="200"
     cy="296"
     r="72.037735" /><path
     style="fill:none;stroke:#000000;stroke-width:60;stroke-dasharray:none"
     d="M 200,296 V 896 H 800"
     id="path408"
     sodipodi:nodetypes="ccc" /></g><g
   id="g1295"
   transform="translate(10554.573,96.344782)"><circle
     style="fill:#000000;stroke:none;stroke-width:20"
     id="path973-1"
     cx="100"
     cy="396"
     r="72.037735" /><circle
     style="fill:#000000;stroke:none;stroke-width:20"
     id="path973-5-0"
     cx="100"
     cy="796"
     r="72.037735" /><circle
     style="fill:#000000;stroke:none;stroke-width:20"
     id="path973-5-0-4"
     cx="460"
     cy="796"
     r="72.037735" /><path
     style="fill:none;stroke:#000000;stroke-width:60;stroke-dasharray:none"
     d="M 100,396 V 796 H 460 V 196 h 360 v 400"
     id="path1225"
     sodipodi:nodetypes="cccccc" /><circle
     style="fill:#000000;stroke:none;stroke-width:20"
     id="path973-5-0-46"
     cx="460"
     cy="196"
     r="72.037735" /><circle
     style="fill:#000000;stroke:none;stroke-width:20"
     id="path973-5-0-9"
     cx="820"
     cy="196"
     r="72.037735" /><circle
     style="fill:#000000;stroke:none;stroke-width:20"
     id="path973-5-0-6"
     cx="820"
     cy="596"
     r="72.037735" /></g><g
   id="g867"
   transform="matrix(1.8178122,0,0,1.8178122,-9756.912,-1832.558)"><path
     d="m 11902.119,1516.9244 v -80 a 80,80 0 1 1 80,80 h -80"
     id="path837"
     style="fill:none;stroke:#000000;stroke-width:40;stroke-linecap:round;stroke-linejoin:round" /><path
     d="m 12262.119,1156.9244 a 320,320 0 0 0 -256,204"
     id="path839"
     style="fill:none;stroke:#000000;stroke-width:40;stroke-linecap:round;stroke-linejoin:round" /><path
     d="m 12262.119,1156.9244 a 320,320 0 0 1 -204,256"
     id="path841"
     style="fill:none;stroke:#000000;stroke-width:40;stroke-linecap:round;stroke-linejoin:round" /><path
     d="m 12054.119,1276.9244 a 180,180 0 0 1 88,88"
     id="path843"
     style="fill:none;stroke:#000000;stroke-width:40;stroke-linecap:round;stroke-linejoin:round" /></g></svg>
