<?xml version="1.0" encoding="UTF-8" standalone="no"?>
<svg
   height="48"
   viewBox="0 96 960 960"
   width="48"
   version="1.1"
   id="svg4"
   sodipodi:docname="icons.svg"
   inkscape:version="1.4 (86a8ad7, 2024-10-11)"
   xml:space="preserve"
   xmlns:inkscape="http://www.inkscape.org/namespaces/inkscape"
   xmlns:sodipodi="http://sodipodi.sourceforge.net/DTD/sodipodi-0.dtd"
   xmlns="http://www.w3.org/2000/svg"
   xmlns:svg="http://www.w3.org/2000/svg"><defs
   id="defs8">
        </defs>
    <sodipodi:namedview
   id="namedview6"
   pagecolor="#ffffff"
   bordercolor="#000000"
   borderopacity="0.25"
   inkscape:showpageshadow="2"
   inkscape:pageopacity="0.0"
   inkscape:pagecheckerboard="0"
   inkscape:deskcolor="#d1d1d1"
   showgrid="true"
   inkscape:zoom="4.1317827"
   inkscape:cx="1369.9897"
   inkscape:cy="-0.36303942"
   inkscape:window-width="1920"
   inkscape:window-height="1129"
   inkscape:window-x="-8"
   inkscape:window-y="-8"
   inkscape:window-maximized="1"
   inkscape:current-layer="svg4"><inkscape:page
   x="0"
   y="0"
   width="960"
   height="960"
   id="page377"
   inkscape:export-filename="cut.png"
   inkscape:export-xdpi="64"
   inkscape:export-ydpi="64"
   margin="0"
   bleed="0" /><inkscape:page
   x="1048.4569"
   y="1.4264898"
   width="960"
   height="960"
   id="page379"
   inkscape:export-filename="move.png"
   inkscape:export-xdpi="64"
   inkscape:export-ydpi="64" /><inkscape:page
   x="2259.5337"
   y="4.6073708e-07"
   width="960.00024"
   height="960"
   id="page810"
   inkscape:export-filename="select.png"
   inkscape:export-xdpi="64"
   inkscape:export-ydpi="64" /><inkscape:page
   x="3395.0068"
   y="-2.8529797"
   width="960.00024"
   height="960"
   id="page850"
   inkscape:export-filename="polygon.png"
   inkscape:export-xdpi="64"
   inkscape:export-ydpi="64" /><inkscape:grid
   type="xygrid"
   id="grid889"
   originx="0"
   originy="0"
   spacingy="1"
   spacingx="1"
   units="px" /><inkscape:page
   x="4536.1855"
   y="4.6675842e-07"
   width="960"
   height="960"
   id="page1681"
   inkscape:export-filename="sprite.png"
   inkscape:export-xdpi="64"
   inkscape:export-ydpi="64" /><inkscape:page
   x="5665.9526"
   y="2.8529797"
   width="960"
   height="960"
   id="page2804"
   inkscape:export-filename="pointer.png"
   inkscape:export-xdpi="64"
   inkscape:export-ydpi="64" /><inkscape:page
   x="6854.0356"
   y="0"
   width="960"
   height="960"
   id="page484"
   inkscape:export-filename="transform.png"
   inkscape:export-xdpi="64"
   inkscape:export-ydpi="64" />
        <inkscape:page
   x="8128.1079"
   y="8.6877823"
   width="959.99951"
   height="960"
   id="page680"
   inkscape:export-filename="resize.png"
   inkscape:export-xdpi="64"
   inkscape:export-ydpi="64" />
        <inkscape:page
   x="9380.6943"
   y="6.1431904"
   width="960"
   height="960"
   id="page490"
   inkscape:export-filename="edit_rect.png"
   inkscape:export-xdpi="64"
   inkscape:export-ydpi="64" /><inkscape:page
   x="10534.573"
   y="16.344776"
   width="960"
   height="960"
   id="page1492"
   inkscape:export-filename="multi_line.png"
   inkscape:export-xdpi="64"
   inkscape:export-ydpi="64" /><inkscape:page
   x="11726.111"
   y="21.719456"
   width="960"
   height="960"
   id="page527"
   inkscape:export-filename="brush.png"
   inkscape:export-xdpi="64"
   inkscape:export-ydpi="64" /><inkscape:page
   x="12895.931"
   y="34.751133"
   width="960"
   height="960"
   id="page2958"
   inkscape:export-filename="fill.png"
   inkscape:export-xdpi="64"
   inkscape:export-ydpi="64" /><inkscape:page
   x="14152.628"
   y="43.438915"
   width="960"
   height="960"
   id="page3010"
   inkscape:export-filename="eraser.png"
   inkscape:export-xdpi="64"
   inkscape:export-ydpi="64" /><inkscape:page
   x="15392.929"
   y="24.572758"
   width="960"
   height="960"
   id="page1"
   margin="0"
   bleed="0" /><inkscape:page
   x="16657.803"
   y="12.286378"
   width="960"
   height="960"
   id="page2"
   margin="0"
   bleed="0"
   inkscape:export-filename="pick.png"
   inkscape:export-xdpi="64"
   inkscape:export-ydpi="64" /><inkscape:page
   x="17992.689"
   y="26.063347"
   width="960"
   height="960"
   id="page3"
   margin="0"
   bleed="0" /><inkscape:page
   x="19275.449"
   y="52.126694"
   width="960"
   height="960"
   id="page4"
   margin="0"
   bleed="0"
   inkscape:export-filename="line.png"
   inkscape:export-xdpi="64"
   inkscape:export-ydpi="64" /><inkscape:page
   x="20773.854"
   y="87.129471"
   width="960"
   height="960"
   id="page5"
   margin="0"
   bleed="0"
   inkscape:export-filename="redo.png"
   inkscape:export-xdpi="64"
   inkscape:export-ydpi="64" /><inkscape:page
   x="22227.906"
   y="77.44841"
   width="960"
   height="960"
   id="page6"
   margin="0"
   bleed="0" /><inkscape:page
   x="23701.32"
   y="87.129463"
   width="960"
   height="960"
   id="page7"
   margin="0"
   bleed="0" /><inkscape:page
   x="25203.777"
   y="125.85367"
   width="960"
   height="960"
   id="page8"
   margin="0"
   bleed="0" /><inkscape:page
   x="26648.148"
   y="164.57787"
   width="960"
   height="960"
   id="page9"
   margin="0"
   bleed="0" /><inkscape:page
   x="28206.865"
   y="177.98396"
   width="960"
   height="960"
   id="page10"
   margin="0"
   bleed="0"
   inkscape:export-filename="folder.png"
   inkscape:export-xdpi="64"
   inkscape:export-ydpi="64" /></sodipodi:namedview>
    <path
   d="m 1528.457,977.4265 -163,-163 44,-44 89,89 v -189 h 60 v 189 l 89,-89 44,44 z m -242,-242 -158.0001,-158 159.0001,-159 44,44 -85,85 h 189 v 60 h -189 l 84,84 z m 484,0 -44,-44 84,-84 h -188 v -60 h 188 l -84,-84 44,-44 158,158 z m -272,-252 v -188 l -84,84 -44,-44 158,-158 158,158 -44,44 -84,-84 v 188 z"
   id="path431" /><path
   d="m 2379.5338,617 v -83 h 60 v 83 z m 0,-170 v -83 h 60 v 83 z m 0,-171 v -60 h 60 v 60 z m 148,0 v -60 h 83 v 60 z m 171,660 v -60 h 83 v 60 z m 0,-660 v -60 h 83 v 60 z m 170,660 v -60 h 83 v 60 z m 171,0 v -60 h 60 v 60 z m 0,-148 v -83 h 60 v 83 z m 0,-171 v -83 h 60 v 83 z m 0,-170 V 276 h -171 v -60 h 231 v 231 z m -660,489 V 705 h 60 v 171 h 171 v 60 z"
   id="path812" /><g
   id="g1941"><circle
     style="fill:#000000;stroke:none;stroke-width:20"
     id="path973-7"
     cx="4025.0068"
     cy="273.147"
     r="72.037735" /><circle
     style="fill:#000000;stroke:none;stroke-width:20"
     id="path973-7-0"
     cx="4225.0068"
     cy="573.14703"
     r="72.037735" /><circle
     style="fill:#000000;stroke:none;stroke-width:20"
     id="path973-7-6"
     cx="4025.0068"
     cy="873.14703"
     r="72.037735" /><circle
     style="fill:#000000;stroke:none;stroke-width:20"
     id="path973-7-03"
     cx="3725.0068"
     cy="873.14703"
     r="72.037735" /><circle
     style="fill:#000000;stroke:none;stroke-width:20"
     id="path973-7-4"
     cx="3525.0068"
     cy="573.14703"
     r="72.037735" /><circle
     style="fill:#000000;stroke-width:20"
     id="path973-0-4"
     cx="3725.0068"
     cy="273.147"
     r="72.037735" /><path
     style="fill:none;stroke:#000000;stroke-width:60"
     d="m 3725.0068,273.14701 h 300 l 200,300 -200,300 h -300 l -200,-300 z"
     id="path994"
     sodipodi:nodetypes="ccccccc" /></g><circle
   style="fill:#000000;stroke:none;stroke-width:20"
   id="path973-7-1"
   cx="5366.1855"
   cy="276"
   r="72.037735" /><path
   style="fill:none;stroke:#000000;stroke-width:64.8074"
   d="m 4666.1855,276 v 600 h 700 V 276 Z"
   id="path1855" /><path
   id="path1683"
   d="m 5113.6855,575.28493 -131.9922,171.01561 -93.0078,-126.99218 -116.9922,151.99219 h 488.9844 z" /><circle
   style="fill:#000000;stroke:none;stroke-width:20"
   id="path973-7-8"
   cx="4666.1855"
   cy="276"
   r="72.037735" /><circle
   style="fill:#000000;stroke:none;stroke-width:20"
   id="path973-7-9"
   cx="5366.1855"
   cy="876"
   r="72.037735" /><circle
   style="fill:#000000;stroke:none;stroke-width:20"
   id="path973-7-18"
   cx="4666.1855"
   cy="876"
   r="72.037735" /><path
   style="fill:none;stroke:#000000;stroke-width:60;stroke-dasharray:none"
   d="m 5927.1059,831.81594 137.7498,-68.87481 68.8748,137.74971 137.7497,-68.8749 -68.8749,-137.74967 137.7498,-68.87487 -413.2492,-344.37428 z"
   id="path2796"
   sodipodi:nodetypes="cccccccc" /><path
   style="fill:#000000;stroke:none;stroke-width:72"
   d="m 7034.0356,276 v 120 h 240 v 480 h 120 V 396 h 240 V 276 h -600"
   id="path590" />
    <g
   id="g798"
   transform="translate(6.111966,0.17694373)"><path
   d="m 8285.1439,544.90437 v 316.85182 a 39.606478,39.606478 0 0 0 39.6065,39.60648 h 316.8518 M 8285.1439,346.87198 v -39.60647 a 39.606478,39.606478 0 0 1 39.6065,-39.60648 h 39.6064 m 198.0324,0 h 79.213 m 198.0324,0 h 39.6064 a 39.606478,39.606478 0 0 1 39.6065,39.60648 v 39.60647 m 0,198.03239 v 79.21296 m 0,198.03239 v 39.60647 a 39.606478,39.606478 0 0 1 -39.6065,39.60648 h -39.6064"
   id="path778"
   style="fill:none;stroke:#000000;stroke-width:79.213;stroke-linecap:round;stroke-linejoin:round" />
        <path
   d="m 8285.1439,584.51085 h 277.2453 a 39.606478,39.606478 0 0 1 39.6065,39.60648 v 277.24534"
   id="path780"
   style="fill:none;stroke:#000000;stroke-width:79.213;stroke-linecap:round;stroke-linejoin:round" /></g>
    <path
   d="m 9525.0795,975.11604 q -22.7536,0 -39.8187,-17.06517 -17.0652,-17.06516 -17.0652,-39.81872 V 349.39328 q 0,-22.75355 17.0652,-39.81872 17.0651,-17.06516 39.8187,-17.06516 h 383.9662 l -56.8839,56.88388 h -327.0823 v 568.83887 h 568.8385 V 588.30561 l 56.884,-56.88389 v 386.81043 q 0,22.75356 -17.065,39.81872 -17.066,17.06517 -39.819,17.06517 z m 284.4194,-341.30332 z m 172.5475,-333.71881 40.7666,39.81872 -270.198,269.2504 v 81.53357 h 80.5855 l 271.1455,-271.14652 39.819,39.81872 -287.2628,288.21169 H 9695.7311 V 586.40948 Z m 162.1186,159.27489 -162.1186,-159.27489 94.8066,-94.80648 q 16.117,-16.1171 40.113,-16.1171 23.997,0 40.472,17.06517 l 79.638,80.58551 q 16.117,17.06516 16.117,40.2662 0,23.20105 -17.065,39.37124 z"
   id="path667"
   style="stroke-width:0.948065" /><path
   d="m 9525.0177,2469.7872 q -22.753,0 -39.819,-17.0651 -17.065,-17.0652 -17.065,-39.8188 v -568.8388 q 0,-22.7536 17.065,-39.8188 17.066,-17.0651 39.819,-17.0651 h 383.967 l -56.884,56.8839 h -327.083 v 568.8388 h 568.8393 v -329.9265 l 56.884,-56.8839 v 386.8104 q 0,22.7536 -17.065,39.8188 -17.066,17.0651 -39.819,17.0651 z m 284.42,-341.3033 z m 172.547,-333.7188 40.7673,39.8187 -270.1983,269.2504 v 81.5336 h 80.586 l 271.1453,-271.1465 39.819,39.8187 -287.2633,288.2117 h -161.171 v -161.171 z m 162.1193,159.2749 -162.1193,-159.2749 94.8073,-94.8065 q 16.117,-16.1171 40.113,-16.1171 23.997,0 40.472,17.0652 l 79.638,80.5855 q 16.117,17.0652 16.117,40.2662 0,23.201 -17.065,39.3712 z"
   id="path667-2"
   style="stroke-width:0.948065" /><g
   id="g1086"
   transform="translate(-20,-20)"><circle
     style="fill:#000000;stroke:none;stroke-width:20"
     id="path973"
     cx="800"
     cy="896"
     r="72.037735" /><circle
     style="fill:#000000;stroke:none;stroke-width:20"
     id="path973-5"
     cx="200"
     cy="896"
     r="72.037735" /><circle
     style="fill:#000000;stroke-width:20"
     id="path973-0"
     cx="200"
     cy="296"
     r="72.037735" /><path
     style="fill:none;stroke:#000000;stroke-width:60;stroke-dasharray:none"
     d="M 200,296 V 896 H 800"
     id="path408"
     sodipodi:nodetypes="ccc" /></g><g
   id="g1295"
   transform="translate(10554.573,96.344782)"><circle
     style="fill:#000000;stroke:none;stroke-width:20"
     id="path973-1"
     cx="100"
     cy="396"
     r="72.037735" /><circle
     style="fill:#000000;stroke:none;stroke-width:20"
     id="path973-5-0"
     cx="100"
     cy="796"
     r="72.037735" /><circle
     style="fill:#000000;stroke:none;stroke-width:20"
     id="path973-5-0-4"
     cx="460"
     cy="796"
     r="72.037735" /><path
     style="fill:none;stroke:#000000;stroke-width:60;stroke-dasharray:none"
     d="M 100,396 V 796 H 460 V 196 h 360 v 400"
     id="path1225"
     sodipodi:nodetypes="cccccc" /><circle
     style="fill:#000000;stroke:none;stroke-width:20"
     id="path973-5-0-46"
     cx="460"
     cy="196"
     r="72.037735" /><circle
     style="fill:#000000;stroke:none;stroke-width:20"
     id="path973-5-0-9"
     cx="820"
     cy="196"
     r="72.037735" /><circle
     style="fill:#000000;stroke:none;stroke-width:20"
     id="path973-5-0-6"
     cx="820"
     cy="596"
     r="72.037735" /></g><path
   d="M 11878.905,924.92568 V 779.5007 a 145.42498,145.42498 0 1 1 145.425,145.42498 h -145.425"
   id="path837"
   style="fill:none;stroke:#000000;stroke-width:72.7125;stroke-linecap:round;stroke-linejoin:round" /><path
   d="m 12533.318,270.51329 a 581.6999,581.6999 0 0 0 -465.36,370.83369"
   id="path839"
   style="fill:none;stroke:#000000;stroke-width:72.7125;stroke-linecap:round;stroke-linejoin:round" /><path
   d="m 12533.318,270.51329 a 581.6999,581.6999 0 0 1 -370.834,465.35992"
   id="path841"
   style="fill:none;stroke:#000000;stroke-width:72.72;stroke-linecap:round;stroke-linejoin:round;stroke-dasharray:none" /><path
   d="m 12155.213,488.65075 a 327.2062,327.2062 0 0 1 159.967,159.96748"
   id="path843"
   style="fill:none;stroke:#000000;stroke-width:72.7125;stroke-linecap:round;stroke-linejoin:round" /><path
   d="m 13339.893,342.85993 a 66.265297,66.265297 0 0 0 -19.752,19.08396 l -136.091,201.96728 c -55.11,92.19277 -33.94,207.69803 49.156,274.90918 82.595,66.82168 202.691,66.82168 285.258,0 83.096,-67.21115 104.266,-182.74423 49.936,-273.6295 l -136.843,-203.24696 c -20.085,-29.90562 -60.98,-38.2792 -91.664,-19.08396 z"
   stroke-width="0"
   fill="currentColor"
   id="path3014" /><path
   d="m 13346.568,2492.905 -259.246,-259.2462 q -10.539,-10.5385 -15.808,-23.1846 -5.269,-12.6462 -5.269,-26.3462 0,-13.7 5.269,-26.3461 5.269,-12.6462 15.808,-23.1846 l 242.385,-241.3308 -111.708,-111.7077 65.338,-68.5 421.539,421.5385 q 10.538,10.5384 15.281,23.1846 4.742,12.6461 4.742,26.3461 0,13.7 -4.742,26.3462 -4.743,12.6461 -15.281,23.1846 l -259.246,259.2462 q -10.539,10.5384 -23.185,15.8077 -12.646,5.2692 -26.346,5.2692 -13.7,0 -26.346,-5.2692 -12.646,-5.2693 -23.185,-15.8077 z m 49.531,-533.2462 -225.523,225.5231 h 451.046 z m 420.484,554.3231 q -37.938,0 -64.284,-26.8731 -26.346,-26.8731 -26.346,-65.8654 0,-28.4538 14.227,-53.7461 14.227,-25.2923 32.142,-49.5308 l 44.261,-56.9077 46.37,56.9077 q 16.861,24.2385 31.615,49.5308 14.754,25.2923 14.754,53.7461 0,38.9923 -27.4,65.8654 -27.4,26.8731 -65.339,26.8731 z"
   id="path3340"
   style="stroke-width:1.05385" /><path
   stroke="none"
   d="m 14146.969,116.63354 h 975.204 v 975.20366 h -975.204 z"
   fill="none"
   id="path3777"
   style="stroke-width:60.9502;stroke-linecap:round;stroke-linejoin:round" /><g
   id="g4405"
   transform="translate(-22.05657,15.107834)"><path
     d="m 14919.005,929.30324 h -426.651 l -171.067,-174.72399 a 40.633485,40.633485 0 0 1 0,-57.29321 l 406.335,-406.33485 a 40.633485,40.633485 0 0 1 57.293,0 l 203.167,203.16743 a 40.633485,40.633485 0 0 1 0,57.29321 l -373.828,377.89141"
     id="path3779"
     style="fill:none;stroke:#000000;stroke-width:72.72;stroke-linecap:round;stroke-linejoin:round;stroke-dasharray:none" /><path
     d="M 14878.372,657.05889 14622.381,401.06793"
     id="path3781"
     style="fill:none;stroke:#000000;stroke-width:72.72;stroke-linecap:round;stroke-linejoin:round;stroke-dasharray:none" /></g><g
   style="fill:none;stroke:currentColor;stroke-width:2;stroke-linecap:round;stroke-linejoin:round"
   id="g2"
   transform="matrix(34.86978,0,0,34.86978,15454.491,182.1354)"><path
     stroke="none"
     d="M 0,0 H 24 V 24 H 0 Z"
     fill="none"
     id="path1" /><path
     d="M 6,21 21,6 18,3 3,18 6,21"
     id="path2" /><path
     d="m 15,6 3,3"
     id="path3" /><path
     d="M 9,3 A 2,2 0 0 0 11,5 2,2 0 0 0 9,7 2,2 0 0 0 7,5 2,2 0 0 0 9,3"
     id="path4" /><path
     d="m 19,13 a 2,2 0 0 0 2,2 2,2 0 0 0 -2,2 2,2 0 0 0 -2,-2 2,2 0 0 0 2,-2"
     id="path5" /></g><g
   style="fill:none;stroke:currentColor;stroke-width:2;stroke-linecap:round;stroke-linejoin:round"
   id="g3"
   transform="matrix(35,0,0,35,16717.803,168.28638)"><path
     stroke="none"
     d="M 0,0 H 24 V 24 H 0 Z"
     fill="none"
     id="path1-0" /><path
     d="m 11,7 6,6"
     id="path2-9" /><path
     d="M 4,16 15.7,4.3 a 1,1 0 0 1 1.4,0 l 2.6,2.6 a 1,1 0 0 1 0,1.4 L 8,20 H 4 Z"
     id="path3-4" /></g><g
   id="g4"
   transform="translate(-10)"><circle
     style="fill:#000000;stroke:none;stroke-width:20"
     id="path973-7-1-0"
     cx="18832.689"
     cy="302.06335"
     r="72.037735" /><path
     style="fill:none;stroke:#000000;stroke-width:64.8074"
     d="m 18132.689,302.06335 v 600 h 700 v -600 z"
     id="path1855-9" /><circle
     style="fill:#000000;stroke:none;stroke-width:20"
     id="path973-7-8-8"
     cx="18132.689"
     cy="302.06335"
     r="72.037735" /><circle
     style="fill:#000000;stroke:none;stroke-width:20"
     id="path973-7-9-8"
     cx="18832.689"
     cy="902.06335"
     r="72.037735" /><circle
     style="fill:#000000;stroke:none;stroke-width:20"
     id="path973-7-18-2"
     cx="18132.689"
     cy="902.06335"
     r="72.037735" /></g><g
   id="g5"
   transform="translate(5,-70)"><path
     style="fill:none;stroke:#000000;stroke-width:64.8074"
     d="m 19395.449,468.12669 710,460 z"
     id="path1855-9-5"
     sodipodi:nodetypes="ccc" /><circle
     style="fill:#000000;stroke:none;stroke-width:20"
     id="path973-7-8-8-5"
     cx="19395.449"
     cy="468.12668"
     r="72.037735" /><circle
     style="fill:#000000;stroke:none;stroke-width:20"
     id="path973-7-9-8-1"
     cx="20105.449"
     cy="928.12671"
     r="72.037735" /></g><path
   d="m 21158.295,892.46846 q -31.533,0 -53.99,-22.4561 -22.456,-22.4562 -22.456,-53.9903 V 357.34429 q 0,-31.53417 22.456,-53.99024 22.457,-22.45616 53.99,-22.45616 h 344.01 q 31.533,0 53.99,22.45616 22.456,22.45607 22.456,53.99024 v 458.67777 q 0,31.5341 -22.456,53.9903 -22.457,22.4561 -53.99,22.4561 z m 0,-76.4464 h 344.01 V 357.34429 h -344.01 z m -152.892,229.33904 q -31.534,0 -53.99,-22.4562 -22.456,-22.456 -22.456,-53.99024 V 433.7905 h 76.446 v 535.12416 h 420.456 v 76.44644 z m 152.892,-229.33904 V 357.34429 Z"
   id="path1-09"
   style="stroke-width:0.955578" /><path
   d="m 22946.169,959.78617 -238.263,-238.2627 -79.988,79.9882 q 6.808,12.7641 9.36,27.23 2.553,14.466 2.553,28.9319 0,56.1619 -39.994,96.156 -39.994,39.99408 -96.156,39.99408 -56.162,0 -96.156,-39.99408 -39.994,-39.9941 -39.994,-96.156 0,-56.1619 39.994,-96.156 39.994,-39.9941 96.156,-39.9941 14.466,0 28.932,2.5528 14.466,2.5528 27.23,9.3603 l 79.988,-79.9881 -79.988,-79.9882 q -12.764,6.8075 -27.23,9.3603 -14.466,2.5528 -28.932,2.5528 -56.162,0 -96.156,-39.9941 -39.994,-39.9941 -39.994,-96.156 0,-56.1619 39.994,-96.15599 39.994,-39.9941 96.156,-39.9941 56.162,0 96.156,39.9941 39.994,39.99409 39.994,96.15599 0,14.466 -2.553,28.9319 -2.552,14.466 -9.36,27.23 l 420.363,420.3635 v 34.0375 z m -136.15,-340.3753 -68.075,-68.075 204.225,-204.22516 h 102.112 v 34.03756 z m -306.338,-102.1125 q 28.081,0 48.078,-19.9971 19.997,-19.997 19.997,-48.078 0,-28.0809 -19.997,-48.078 -19.997,-19.997 -48.078,-19.997 -28.081,0 -48.078,19.997 -19.997,19.9971 -19.997,48.078 0,28.081 19.997,48.078 19.997,19.9971 48.078,19.9971 z m 204.225,153.1688 q 6.808,0 11.913,-5.1056 5.106,-5.1056 5.106,-11.9131 0,-6.8075 -5.106,-11.9132 -5.105,-5.1056 -11.913,-5.1056 -6.807,0 -11.913,5.1056 -5.106,5.1057 -5.106,11.9132 0,6.8075 5.106,11.9131 5.106,5.1056 11.913,5.1056 z m -204.225,255.2815 q 28.081,0 48.078,-19.9971 19.997,-19.997 19.997,-48.078 0,-28.081 -19.997,-48.078 -19.997,-19.997 -48.078,-19.997 -28.081,0 -48.078,19.997 -19.997,19.997 -19.997,48.078 0,28.081 19.997,48.078 19.997,19.9971 48.078,19.9971 z"
   id="path1-4"
   style="stroke-width:0.850938" /><path
   d="m 23928.374,1024.4803 q -29.811,0 -51.041,-21.2294 -21.229,-21.22935 -21.229,-51.04075 V 446.31896 q 0,-29.81144 21.229,-51.0408 21.23,-21.22937 51.041,-21.22937 h 150.864 q 9.937,-31.6182 38.845,-51.94418 28.908,-20.32599 63.237,-20.32599 36.135,0 64.591,20.32599 28.457,20.32598 38.394,51.94418 h 149.96 q 29.812,0 51.041,21.22937 21.23,21.22936 21.23,51.0408 v 505.89119 q 0,29.8114 -21.23,51.04075 -21.229,21.2294 -51.041,21.2294 z m 0,-72.27015 h 505.891 V 446.31896 h -72.27 v 108.40526 h -361.351 V 446.31896 h -72.27 z m 252.946,-505.89119 q 15.357,0 25.746,-10.38883 10.389,-10.38884 10.389,-25.74625 0,-15.35741 -10.389,-25.74625 -10.389,-10.38884 -25.746,-10.38884 -15.358,0 -25.746,10.38884 -10.389,10.38884 -10.389,25.74625 0,15.35741 10.389,25.74625 10.388,10.38883 25.746,10.38883 z"
   id="path1-8"
   style="stroke-width:0.903377" /><path
   d="m 25478.671,1009.5149 v -82.04296 h 291.251 q 64.61,0 112.296,-41.02149 47.687,-41.02152 47.687,-102.55377 0,-61.53225 -47.687,-102.55377 -47.686,-41.02149 -112.296,-41.02149 h -258.436 l 106.657,106.65591 -57.43,57.4301 -205.108,-205.10753 205.108,-205.10751 57.43,57.4301 -106.657,106.65591 h 258.436 q 99.477,0 170.752,64.60888 71.275,64.60885 71.275,161.0094 0,96.40053 -71.275,161.0094 -71.275,64.60882 -170.752,64.60882 z"
   id="path1-82"
   style="stroke-width:1.02553" /><path
   d="m 27333.254,1048.2391 v -82.04293 h -291.251 q -64.61,0 -112.296,-41.02149 -47.687,-41.02152 -47.687,-102.55377 0,-61.53225 47.687,-102.55377 47.686,-41.02149 112.296,-41.02149 h 258.436 l -106.657,106.65591 57.43,57.4301 205.108,-205.10753 -205.108,-205.10751 -57.43,57.4301 106.657,106.65591 h -258.436 q -99.477,0 -170.752,64.60888 -71.275,64.60885 -71.275,161.0094 0,96.40053 71.275,161.0094 71.275,64.60879 170.752,64.60879 z"
   id="path1-82-4"
   style="stroke-width:1.02553" /><path
   d="m 28406.82,1034.029 q -28.879,0 -49.445,-20.5659 -20.566,-20.56573 -20.566,-49.4454 V 543.95017 q 0,-28.87965 20.566,-49.44546 20.566,-20.5658 49.445,-20.5658 h 210.034 l 70.011,70.01126 h 280.045 q 28.881,0 49.446,20.5658 20.566,20.56581 20.566,49.44546 V 964.0177 q 0,28.87967 -20.566,49.4454 -20.565,20.5659 -49.446,20.5659 z m 0,-70.0113 h 560.09 V 613.96143 h -308.924 l -70.011,-70.01126 h -181.155 z m 0,0 V 543.95017 Z"
   id="path1-094"
   style="stroke-width:0.87514" /></svg>
