<?xml version="1.0" encoding="UTF-8" standalone="no"?>
<svg
   height="48"
   viewBox="0 96 960 960"
   width="48"
   version="1.1"
   id="svg4"
   sodipodi:docname="icons.svg"
   inkscape:version="1.4.2 (f4327f4, 2025-05-13)"
   xml:space="preserve"
   xmlns:inkscape="http://www.inkscape.org/namespaces/inkscape"
   xmlns:sodipodi="http://sodipodi.sourceforge.net/DTD/sodipodi-0.dtd"
   xmlns="http://www.w3.org/2000/svg"
   xmlns:svg="http://www.w3.org/2000/svg"><defs
   id="defs8">
        </defs>
    <sodipodi:namedview
   id="namedview6"
   pagecolor="#ffffff"
   bordercolor="#000000"
   borderopacity="0.25"
   inkscape:showpageshadow="2"
   inkscape:pageopacity="0.0"
   inkscape:pagecheckerboard="0"
   inkscape:deskcolor="#d1d1d1"
   showgrid="true"
   inkscape:zoom="1.4608058"
   inkscape:cx="748.90174"
   inkscape:cy="-11.97969"
   inkscape:window-width="3840"
   inkscape:window-height="2054"
   inkscape:window-x="-11"
   inkscape:window-y="-11"
   inkscape:window-maximized="1"
   inkscape:current-layer="svg4"><inkscape:page
   x="0"
   y="0"
   width="960"
   height="960"
   id="page377"
   inkscape:export-filename="pointer.png"
   inkscape:export-xdpi="64"
   inkscape:export-ydpi="64"
   margin="0"
   bleed="0" /><inkscape:page
   x="1048.4569"
   y="1.4264898"
   width="960"
   height="960"
   id="page379"
   inkscape:export-filename="move.png"
   inkscape:export-xdpi="64"
   inkscape:export-ydpi="64" /><inkscape:page
   x="2259.5337"
   y="4.6073708e-07"
   width="960.00024"
   height="960"
   id="page810"
   inkscape:export-filename="select.png"
   inkscape:export-xdpi="64"
   inkscape:export-ydpi="64" /><inkscape:page
   x="3395.0068"
   y="-2.8529797"
   width="960.00024"
   height="960"
   id="page850"
   inkscape:export-filename="polygon.png"
   inkscape:export-xdpi="64"
   inkscape:export-ydpi="64" /><inkscape:grid
   type="xygrid"
   id="grid889"
   originx="0"
   originy="0"
   spacingy="1"
   spacingx="1"
   units="px" /><inkscape:page
   x="4536.1855"
   y="4.6675842e-07"
   width="960"
   height="960"
   id="page1681"
   inkscape:export-filename="sprite.png"
   inkscape:export-xdpi="64"
   inkscape:export-ydpi="64" /><inkscape:page
   x="6854.0356"
   y="0"
   width="960"
   height="960"
   id="page484"
   inkscape:export-filename="transform.png"
   inkscape:export-xdpi="64"
   inkscape:export-ydpi="64" />
        <inkscape:page
   x="8128.1079"
   y="8.6877823"
   width="959.99951"
   height="960"
   id="page680"
   inkscape:export-filename="resize.png"
   inkscape:export-xdpi="64"
   inkscape:export-ydpi="64" />
        <inkscape:page
   x="9380.6943"
   y="6.1431904"
   width="960"
   height="960"
   id="page490"
   inkscape:export-filename="edit_rect.png"
   inkscape:export-xdpi="64"
   inkscape:export-ydpi="64" /><inkscape:page
   x="10534.573"
   y="16.344776"
   width="960"
   height="960"
   id="page1492"
   inkscape:export-filename="multi_line.png"
   inkscape:export-xdpi="64"
   inkscape:export-ydpi="64" /><inkscape:page
   x="11726.111"
   y="21.719456"
   width="960"
   height="960"
   id="page527"
   inkscape:export-filename="brush.png"
   inkscape:export-xdpi="64"
   inkscape:export-ydpi="64" /><inkscape:page
   x="12895.931"
   y="34.751133"
   width="960"
   height="960"
   id="page2958"
   inkscape:export-filename="fill.png"
   inkscape:export-xdpi="64"
   inkscape:export-ydpi="64" /><inkscape:page
   x="14152.628"
   y="43.438915"
   width="960"
   height="960"
   id="page3010"
   inkscape:export-filename="eraser.png"
   inkscape:export-xdpi="64"
   inkscape:export-ydpi="64" /><inkscape:page
   x="15392.929"
   y="24.572758"
   width="960"
   height="960"
   id="page1"
   margin="0"
   bleed="0" /><inkscape:page
   x="16657.803"
   y="12.286378"
   width="960"
   height="960"
   id="page2"
   margin="0"
   bleed="0"
   inkscape:export-filename="pick.png"
   inkscape:export-xdpi="64"
   inkscape:export-ydpi="64" /><inkscape:page
   x="17992.689"
   y="26.063347"
   width="960"
   height="960"
   id="page3"
   margin="0"
   bleed="0" /><inkscape:page
   x="19275.449"
   y="52.126694"
   width="960"
   height="960"
   id="page4"
   margin="0"
   bleed="0"
   inkscape:export-filename="line.png"
   inkscape:export-xdpi="64"
   inkscape:export-ydpi="64" /><inkscape:page
   x="20773.854"
   y="87.129471"
   width="960"
   height="960"
   id="page5"
   margin="0"
   bleed="0"
   inkscape:export-filename="redo.png"
   inkscape:export-xdpi="64"
   inkscape:export-ydpi="64" /><inkscape:page
   x="22227.906"
   y="77.44841"
   width="960"
   height="960"
   id="page6"
   margin="0"
   bleed="0" /><inkscape:page
   x="23701.32"
   y="87.129463"
   width="960"
   height="960"
   id="page7"
   margin="0"
   bleed="0" /><inkscape:page
   x="25203.777"
   y="125.85367"
   width="960"
   height="960"
   id="page8"
   margin="0"
   bleed="0" /><inkscape:page
   x="26648.148"
   y="164.57787"
   width="960"
   height="960"
   id="page9"
   margin="0"
   bleed="0" /><inkscape:page
   x="28206.865"
   y="177.98396"
   width="960"
   height="960"
   id="page10"
   margin="0"
   bleed="0"
   inkscape:export-filename="folder.png"
   inkscape:export-xdpi="64"
   inkscape:export-ydpi="64" /><inkscape:page
   x="29796.453"
   y="174.25893"
   width="960"
   height="960"
   id="page11"
   margin="0"
   bleed="0" /><inkscape:page
   x="31463.488"
   y="193.62102"
   width="960"
   height="960"
   id="page12"
   margin="0"
   bleed="0" /><inkscape:page
   x="33033.711"
   y="212.98312"
   width="960"
   height="960"
   id="page13"
   margin="0"
   bleed="0" /><inkscape:page
   x="34565.211"
   y="212.98311"
   width="960"
   height="960"
   id="page14"
   margin="0"
   bleed="0"
   inkscape:export-filename="slow_motion.png"
   inkscape:export-xdpi="64"
   inkscape:export-ydpi="64" /><inkscape:page
   x="36082.855"
   y="266.97595"
   width="960"
   height="960"
   id="page15"
   margin="0"
   bleed="0" /><inkscape:page
   x="37675.801"
   y="266.97595"
   width="960"
   height="960"
   id="page16"
   margin="0"
   bleed="0" /><inkscape:page
   x="39193.445"
   y="253.28487"
   width="960"
   height="960"
   id="page17"
   margin="0"
   bleed="0" /></sodipodi:namedview>
    <path
   d="m 1528.457,977.4265 -163,-163 44,-44 89,89 v -189 h 60 v 189 l 89,-89 44,44 z m -242,-242 -158.0001,-158 159.0001,-159 44,44 -85,85 h 189 v 60 h -189 l 84,84 z m 484,0 -44,-44 84,-84 h -188 v -60 h 188 l -84,-84 44,-44 158,158 z m -272,-252 v -188 l -84,84 -44,-44 158,-158 158,158 -44,44 -84,-84 v 188 z"
   id="path431" /><path
   d="m 2379.5338,617 v -83 h 60 v 83 z m 0,-170 v -83 h 60 v 83 z m 0,-171 v -60 h 60 v 60 z m 148,0 v -60 h 83 v 60 z m 171,660 v -60 h 83 v 60 z m 0,-660 v -60 h 83 v 60 z m 170,660 v -60 h 83 v 60 z m 171,0 v -60 h 60 v 60 z m 0,-148 v -83 h 60 v 83 z m 0,-171 v -83 h 60 v 83 z m 0,-170 V 276 h -171 v -60 h 231 v 231 z m -660,489 V 705 h 60 v 171 h 171 v 60 z"
   id="path812" /><g
   id="g1941"><circle
     style="fill:#000000;stroke:none;stroke-width:20"
     id="path973-7"
     cx="4025.0068"
     cy="273.147"
     r="72.037735" /><circle
     style="fill:#000000;stroke:none;stroke-width:20"
     id="path973-7-0"
     cx="4225.0068"
     cy="573.14703"
     r="72.037735" /><circle
     style="fill:#000000;stroke:none;stroke-width:20"
     id="path973-7-6"
     cx="4025.0068"
     cy="873.14703"
     r="72.037735" /><circle
     style="fill:#000000;stroke:none;stroke-width:20"
     id="path973-7-03"
     cx="3725.0068"
     cy="873.14703"
     r="72.037735" /><circle
     style="fill:#000000;stroke:none;stroke-width:20"
     id="path973-7-4"
     cx="3525.0068"
     cy="573.14703"
     r="72.037735" /><circle
     style="fill:#000000;stroke-width:20"
     id="path973-0-4"
     cx="3725.0068"
     cy="273.147"
     r="72.037735" /><path
     style="fill:none;stroke:#000000;stroke-width:60"
     d="m 3725.0068,273.14701 h 300 l 200,300 -200,300 h -300 l -200,-300 z"
     id="path994"
     sodipodi:nodetypes="ccccccc" /></g><circle
   style="fill:#000000;stroke:none;stroke-width:20"
   id="path973-7-1"
   cx="5366.1855"
   cy="276"
   r="72.037735" /><path
   style="fill:none;stroke:#000000;stroke-width:64.8074"
   d="m 4666.1855,276 v 600 h 700 V 276 Z"
   id="path1855" /><path
   id="path1683"
   d="m 5113.6855,575.28493 -131.9922,171.01561 -93.0078,-126.99218 -116.9922,151.99219 h 488.9844 z" /><circle
   style="fill:#000000;stroke:none;stroke-width:20"
   id="path973-7-8"
   cx="4666.1855"
   cy="276"
   r="72.037735" /><circle
   style="fill:#000000;stroke:none;stroke-width:20"
   id="path973-7-9"
   cx="5366.1855"
   cy="876"
   r="72.037735" /><circle
   style="fill:#000000;stroke:none;stroke-width:20"
   id="path973-7-18"
   cx="4666.1855"
   cy="876"
   r="72.037735" /><path
   style="fill:#000000;stroke:none;stroke-width:72"
   d="m 7034.0356,276 v 120 h 240 v 480 h 120 V 396 h 240 V 276 h -600"
   id="path590" />
    <g
   id="g798"
   transform="translate(6.111966,0.17694373)"><path
   d="m 8285.1439,544.90437 v 316.85182 a 39.606478,39.606478 0 0 0 39.6065,39.60648 h 316.8518 M 8285.1439,346.87198 v -39.60647 a 39.606478,39.606478 0 0 1 39.6065,-39.60648 h 39.6064 m 198.0324,0 h 79.213 m 198.0324,0 h 39.6064 a 39.606478,39.606478 0 0 1 39.6065,39.60648 v 39.60647 m 0,198.03239 v 79.21296 m 0,198.03239 v 39.60647 a 39.606478,39.606478 0 0 1 -39.6065,39.60648 h -39.6064"
   id="path778"
   style="fill:none;stroke:#000000;stroke-width:79.213;stroke-linecap:round;stroke-linejoin:round" />
        <path
   d="m 8285.1439,584.51085 h 277.2453 a 39.606478,39.606478 0 0 1 39.6065,39.60648 v 277.24534"
   id="path780"
   style="fill:none;stroke:#000000;stroke-width:79.213;stroke-linecap:round;stroke-linejoin:round" /></g>
    <path
   d="m 9525.0795,975.11604 q -22.7536,0 -39.8187,-17.06517 -17.0652,-17.06516 -17.0652,-39.81872 V 349.39328 q 0,-22.75355 17.0652,-39.81872 17.0651,-17.06516 39.8187,-17.06516 h 383.9662 l -56.8839,56.88388 h -327.0823 v 568.83887 h 568.8385 V 588.30561 l 56.884,-56.88389 v 386.81043 q 0,22.75356 -17.065,39.81872 -17.066,17.06517 -39.819,17.06517 z m 284.4194,-341.30332 z m 172.5475,-333.71881 40.7666,39.81872 -270.198,269.2504 v 81.53357 h 80.5855 l 271.1455,-271.14652 39.819,39.81872 -287.2628,288.21169 H 9695.7311 V 586.40948 Z m 162.1186,159.27489 -162.1186,-159.27489 94.8066,-94.80648 q 16.117,-16.1171 40.113,-16.1171 23.997,0 40.472,17.06517 l 79.638,80.58551 q 16.117,17.06516 16.117,40.2662 0,23.20105 -17.065,39.37124 z"
   id="path667"
   style="stroke-width:0.948065" /><path
   d="m 9525.0177,2469.7872 q -22.753,0 -39.819,-17.0651 -17.065,-17.0652 -17.065,-39.8188 v -568.8388 q 0,-22.7536 17.065,-39.8188 17.066,-17.0651 39.819,-17.0651 h 383.967 l -56.884,56.8839 h -327.083 v 568.8388 h 568.8393 v -329.9265 l 56.884,-56.8839 v 386.8104 q 0,22.7536 -17.065,39.8188 -17.066,17.0651 -39.819,17.0651 z m 284.42,-341.3033 z m 172.547,-333.7188 40.7673,39.8187 -270.1983,269.2504 v 81.5336 h 80.586 l 271.1453,-271.1465 39.819,39.8187 -287.2633,288.2117 h -161.171 v -161.171 z m 162.1193,159.2749 -162.1193,-159.2749 94.8073,-94.8065 q 16.117,-16.1171 40.113,-16.1171 23.997,0 40.472,17.0652 l 79.638,80.5855 q 16.117,17.0652 16.117,40.2662 0,23.201 -17.065,39.3712 z"
   id="path667-2"
   style="stroke-width:0.948065" /><g
   id="g1086"
   transform="translate(-20,-20)"><circle
     style="fill:#000000;stroke:none;stroke-width:20"
     id="path973"
     cx="800"
     cy="896"
     r="72.037735" /><circle
     style="fill:#000000;stroke:none;stroke-width:20"
     id="path973-5"
     cx="200"
     cy="896"
     r="72.037735" /><circle
     style="fill:#000000;stroke-width:20"
     id="path973-0"
     cx="200"
     cy="296"
     r="72.037735" /><path
     style="fill:none;stroke:#000000;stroke-width:60;stroke-dasharray:none"
     d="M 200,296 V 896 H 800"
     id="path408"
     sodipodi:nodetypes="ccc" /></g><g
   id="g1295"
   transform="translate(10554.573,96.344782)"><circle
     style="fill:#000000;stroke:none;stroke-width:20"
     id="path973-1"
     cx="100"
     cy="396"
     r="72.037735" /><circle
     style="fill:#000000;stroke:none;stroke-width:20"
     id="path973-5-0"
     cx="100"
     cy="796"
     r="72.037735" /><circle
     style="fill:#000000;stroke:none;stroke-width:20"
     id="path973-5-0-4"
     cx="460"
     cy="796"
     r="72.037735" /><path
     style="fill:none;stroke:#000000;stroke-width:60;stroke-dasharray:none"
     d="M 100,396 V 796 H 460 V 196 h 360 v 400"
     id="path1225"
     sodipodi:nodetypes="cccccc" /><circle
     style="fill:#000000;stroke:none;stroke-width:20"
     id="path973-5-0-46"
     cx="460"
     cy="196"
     r="72.037735" /><circle
     style="fill:#000000;stroke:none;stroke-width:20"
     id="path973-5-0-9"
     cx="820"
     cy="196"
     r="72.037735" /><circle
     style="fill:#000000;stroke:none;stroke-width:20"
     id="path973-5-0-6"
     cx="820"
     cy="596"
     r="72.037735" /></g><path
   d="M 11878.905,924.92568 V 779.5007 a 145.42498,145.42498 0 1 1 145.425,145.42498 h -145.425"
   id="path837"
   style="fill:none;stroke:#000000;stroke-width:72.7125;stroke-linecap:round;stroke-linejoin:round" /><path
   d="m 12533.318,270.51329 a 581.6999,581.6999 0 0 0 -465.36,370.83369"
   id="path839"
   style="fill:none;stroke:#000000;stroke-width:72.7125;stroke-linecap:round;stroke-linejoin:round" /><path
   d="m 12533.318,270.51329 a 581.6999,581.6999 0 0 1 -370.834,465.35992"
   id="path841"
   style="fill:none;stroke:#000000;stroke-width:72.72;stroke-linecap:round;stroke-linejoin:round;stroke-dasharray:none" /><path
   d="m 12155.213,488.65075 a 327.2062,327.2062 0 0 1 159.967,159.96748"
   id="path843"
   style="fill:none;stroke:#000000;stroke-width:72.7125;stroke-linecap:round;stroke-linejoin:round" /><path
   d="m 13339.893,342.85993 a 66.265297,66.265297 0 0 0 -19.752,19.08396 l -136.091,201.96728 c -55.11,92.19277 -33.94,207.69803 49.156,274.90918 82.595,66.82168 202.691,66.82168 285.258,0 83.096,-67.21115 104.266,-182.74423 49.936,-273.6295 l -136.843,-203.24696 c -20.085,-29.90562 -60.98,-38.2792 -91.664,-19.08396 z"
   stroke-width="0"
   fill="currentColor"
   id="path3014" /><path
   d="m 13346.568,2492.905 -259.246,-259.2462 q -10.539,-10.5385 -15.808,-23.1846 -5.269,-12.6462 -5.269,-26.3462 0,-13.7 5.269,-26.3461 5.269,-12.6462 15.808,-23.1846 l 242.385,-241.3308 -111.708,-111.7077 65.338,-68.5 421.539,421.5385 q 10.538,10.5384 15.281,23.1846 4.742,12.6461 4.742,26.3461 0,13.7 -4.742,26.3462 -4.743,12.6461 -15.281,23.1846 l -259.246,259.2462 q -10.539,10.5384 -23.185,15.8077 -12.646,5.2692 -26.346,5.2692 -13.7,0 -26.346,-5.2692 -12.646,-5.2693 -23.185,-15.8077 z m 49.531,-533.2462 -225.523,225.5231 h 451.046 z m 420.484,554.3231 q -37.938,0 -64.284,-26.8731 -26.346,-26.8731 -26.346,-65.8654 0,-28.4538 14.227,-53.7461 14.227,-25.2923 32.142,-49.5308 l 44.261,-56.9077 46.37,56.9077 q 16.861,24.2385 31.615,49.5308 14.754,25.2923 14.754,53.7461 0,38.9923 -27.4,65.8654 -27.4,26.8731 -65.339,26.8731 z"
   id="path3340"
   style="stroke-width:1.05385" /><path
   stroke="none"
   d="m 14146.969,116.63354 h 975.204 v 975.20366 h -975.204 z"
   fill="none"
   id="path3777"
   style="stroke-width:60.9502;stroke-linecap:round;stroke-linejoin:round" /><g
   id="g4405"
   transform="translate(-22.05657,15.107834)"><path
     d="m 14919.005,929.30324 h -426.651 l -171.067,-174.72399 a 40.633485,40.633485 0 0 1 0,-57.29321 l 406.335,-406.33485 a 40.633485,40.633485 0 0 1 57.293,0 l 203.167,203.16743 a 40.633485,40.633485 0 0 1 0,57.29321 l -373.828,377.89141"
     id="path3779"
     style="fill:none;stroke:#000000;stroke-width:72.72;stroke-linecap:round;stroke-linejoin:round;stroke-dasharray:none" /><path
     d="M 14878.372,657.05889 14622.381,401.06793"
     id="path3781"
     style="fill:none;stroke:#000000;stroke-width:72.72;stroke-linecap:round;stroke-linejoin:round;stroke-dasharray:none" /></g><g
   style="fill:none;stroke:currentColor;stroke-width:2;stroke-linecap:round;stroke-linejoin:round"
   id="g2"
   transform="matrix(34.86978,0,0,34.86978,15454.491,182.1354)"><path
     stroke="none"
     d="M 0,0 H 24 V 24 H 0 Z"
     fill="none"
     id="path1" /><path
     d="M 6,21 21,6 18,3 3,18 6,21"
     id="path2" /><path
     d="m 15,6 3,3"
     id="path3" /><path
     d="M 9,3 A 2,2 0 0 0 11,5 2,2 0 0 0 9,7 2,2 0 0 0 7,5 2,2 0 0 0 9,3"
     id="path4" /><path
     d="m 19,13 a 2,2 0 0 0 2,2 2,2 0 0 0 -2,2 2,2 0 0 0 -2,-2 2,2 0 0 0 2,-2"
     id="path5" /></g><g
   style="fill:none;stroke:currentColor;stroke-width:2;stroke-linecap:round;stroke-linejoin:round"
   id="g3"
   transform="matrix(35,0,0,35,16717.803,168.28638)"><path
     stroke="none"
     d="M 0,0 H 24 V 24 H 0 Z"
     fill="none"
     id="path1-0" /><path
     d="m 11,7 6,6"
     id="path2-9" /><path
     d="M 4,16 15.7,4.3 a 1,1 0 0 1 1.4,0 l 2.6,2.6 a 1,1 0 0 1 0,1.4 L 8,20 H 4 Z"
     id="path3-4" /></g><g
   id="g4"
   transform="translate(-10)"><circle
     style="fill:#000000;stroke:none;stroke-width:20"
     id="path973-7-1-0"
     cx="18832.689"
     cy="302.06335"
     r="72.037735" /><path
     style="fill:none;stroke:#000000;stroke-width:64.8074"
     d="m 18132.689,302.06335 v 600 h 700 v -600 z"
     id="path1855-9" /><circle
     style="fill:#000000;stroke:none;stroke-width:20"
     id="path973-7-8-8"
     cx="18132.689"
     cy="302.06335"
     r="72.037735" /><circle
     style="fill:#000000;stroke:none;stroke-width:20"
     id="path973-7-9-8"
     cx="18832.689"
     cy="902.06335"
     r="72.037735" /><circle
     style="fill:#000000;stroke:none;stroke-width:20"
     id="path973-7-18-2"
     cx="18132.689"
     cy="902.06335"
     r="72.037735" /></g><g
   id="g5"
   transform="translate(5,-70)"><path
     style="fill:none;stroke:#000000;stroke-width:64.8074"
     d="m 19395.449,468.12669 710,460 z"
     id="path1855-9-5"
     sodipodi:nodetypes="ccc" /><circle
     style="fill:#000000;stroke:none;stroke-width:20"
     id="path973-7-8-8-5"
     cx="19395.449"
     cy="468.12668"
     r="72.037735" /><circle
     style="fill:#000000;stroke:none;stroke-width:20"
     id="path973-7-9-8-1"
     cx="20105.449"
     cy="928.12671"
     r="72.037735" /></g><path
   d="m 21158.295,892.46846 q -31.533,0 -53.99,-22.4561 -22.456,-22.4562 -22.456,-53.9903 V 357.34429 q 0,-31.53417 22.456,-53.99024 22.457,-22.45616 53.99,-22.45616 h 344.01 q 31.533,0 53.99,22.45616 22.456,22.45607 22.456,53.99024 v 458.67777 q 0,31.5341 -22.456,53.9903 -22.457,22.4561 -53.99,22.4561 z m 0,-76.4464 h 344.01 V 357.34429 h -344.01 z m -152.892,229.33904 q -31.534,0 -53.99,-22.4562 -22.456,-22.456 -22.456,-53.99024 V 433.7905 h 76.446 v 535.12416 h 420.456 v 76.44644 z m 152.892,-229.33904 V 357.34429 Z"
   id="path1-09"
   style="stroke-width:0.955578" /><path
   d="m 22946.169,959.78617 -238.263,-238.2627 -79.988,79.9882 q 6.808,12.7641 9.36,27.23 2.553,14.466 2.553,28.9319 0,56.1619 -39.994,96.156 -39.994,39.99408 -96.156,39.99408 -56.162,0 -96.156,-39.99408 -39.994,-39.9941 -39.994,-96.156 0,-56.1619 39.994,-96.156 39.994,-39.9941 96.156,-39.9941 14.466,0 28.932,2.5528 14.466,2.5528 27.23,9.3603 l 79.988,-79.9881 -79.988,-79.9882 q -12.764,6.8075 -27.23,9.3603 -14.466,2.5528 -28.932,2.5528 -56.162,0 -96.156,-39.9941 -39.994,-39.9941 -39.994,-96.156 0,-56.1619 39.994,-96.15599 39.994,-39.9941 96.156,-39.9941 56.162,0 96.156,39.9941 39.994,39.99409 39.994,96.15599 0,14.466 -2.553,28.9319 -2.552,14.466 -9.36,27.23 l 420.363,420.3635 v 34.0375 z m -136.15,-340.3753 -68.075,-68.075 204.225,-204.22516 h 102.112 v 34.03756 z m -306.338,-102.1125 q 28.081,0 48.078,-19.9971 19.997,-19.997 19.997,-48.078 0,-28.0809 -19.997,-48.078 -19.997,-19.997 -48.078,-19.997 -28.081,0 -48.078,19.997 -19.997,19.9971 -19.997,48.078 0,28.081 19.997,48.078 19.997,19.9971 48.078,19.9971 z m 204.225,153.1688 q 6.808,0 11.913,-5.1056 5.106,-5.1056 5.106,-11.9131 0,-6.8075 -5.106,-11.9132 -5.105,-5.1056 -11.913,-5.1056 -6.807,0 -11.913,5.1056 -5.106,5.1057 -5.106,11.9132 0,6.8075 5.106,11.9131 5.106,5.1056 11.913,5.1056 z m -204.225,255.2815 q 28.081,0 48.078,-19.9971 19.997,-19.997 19.997,-48.078 0,-28.081 -19.997,-48.078 -19.997,-19.997 -48.078,-19.997 -28.081,0 -48.078,19.997 -19.997,19.997 -19.997,48.078 0,28.081 19.997,48.078 19.997,19.9971 48.078,19.9971 z"
   id="path1-4"
   style="stroke-width:0.850938" /><path
   d="m 23928.374,1024.4803 q -29.811,0 -51.041,-21.2294 -21.229,-21.22935 -21.229,-51.04075 V 446.31896 q 0,-29.81144 21.229,-51.0408 21.23,-21.22937 51.041,-21.22937 h 150.864 q 9.937,-31.6182 38.845,-51.94418 28.908,-20.32599 63.237,-20.32599 36.135,0 64.591,20.32599 28.457,20.32598 38.394,51.94418 h 149.96 q 29.812,0 51.041,21.22937 21.23,21.22936 21.23,51.0408 v 505.89119 q 0,29.8114 -21.23,51.04075 -21.229,21.2294 -51.041,21.2294 z m 0,-72.27015 h 505.891 V 446.31896 h -72.27 v 108.40526 h -361.351 V 446.31896 h -72.27 z m 252.946,-505.89119 q 15.357,0 25.746,-10.38883 10.389,-10.38884 10.389,-25.74625 0,-15.35741 -10.389,-25.74625 -10.389,-10.38884 -25.746,-10.38884 -15.358,0 -25.746,10.38884 -10.389,10.38884 -10.389,25.74625 0,15.35741 10.389,25.74625 10.388,10.38883 25.746,10.38883 z"
   id="path1-8"
   style="stroke-width:0.903377" /><path
   d="m 25478.671,1009.5149 v -82.04296 h 291.251 q 64.61,0 112.296,-41.02149 47.687,-41.02152 47.687,-102.55377 0,-61.53225 -47.687,-102.55377 -47.686,-41.02149 -112.296,-41.02149 h -258.436 l 106.657,106.65591 -57.43,57.4301 -205.108,-205.10753 205.108,-205.10751 57.43,57.4301 -106.657,106.65591 h 258.436 q 99.477,0 170.752,64.60888 71.275,64.60885 71.275,161.0094 0,96.40053 -71.275,161.0094 -71.275,64.60882 -170.752,64.60882 z"
   id="path1-82"
   style="stroke-width:1.02553" /><path
   d="m 27333.254,1048.2391 v -82.04293 h -291.251 q -64.61,0 -112.296,-41.02149 -47.687,-41.02152 -47.687,-102.55377 0,-61.53225 47.687,-102.55377 47.686,-41.02149 112.296,-41.02149 h 258.436 l -106.657,106.65591 57.43,57.4301 205.108,-205.10753 -205.108,-205.10751 -57.43,57.4301 106.657,106.65591 h -258.436 q -99.477,0 -170.752,64.60888 -71.275,64.60885 -71.275,161.0094 0,96.40053 71.275,161.0094 71.275,64.60879 170.752,64.60879 z"
   id="path1-82-4"
   style="stroke-width:1.02553" /><path
   d="m 28406.82,1034.029 q -28.879,0 -49.445,-20.5659 -20.566,-20.56573 -20.566,-49.4454 V 543.95017 q 0,-28.87965 20.566,-49.44546 20.566,-20.5658 49.445,-20.5658 h 210.034 l 70.011,70.01126 h 280.045 q 28.881,0 49.446,20.5658 20.566,20.56581 20.566,49.44546 V 964.0177 q 0,28.87967 -20.566,49.4454 -20.565,20.5659 -49.446,20.5659 z m 0,-70.0113 h 560.09 V 613.96143 h -308.924 l -70.011,-70.01126 h -181.155 z m 0,0 V 543.95017 Z"
   id="path1-094"
   style="stroke-width:0.87514" /><path
   d="M 30037.589,988.32143 V 512.19625 q 0,-23.54341 15.531,-37.66298 15.529,-14.11967 36.252,-14.11967 6.779,0 13.735,1.79501 6.972,1.77894 13.75,5.35289 l 374.532,239.29672 q 11.971,8.38198 17.951,19.11999 5.977,10.72195 5.977,24.28069 0,13.55863 -5.977,24.28057 -5.98,10.73802 -17.951,19.12009 l -374.532,239.29674 q -6.778,3.574 -13.75,5.3529 -6.956,1.7951 -13.735,1.7951 -20.723,0 -36.252,-14.1199 -15.531,-14.1196 -15.531,-37.66297 z m 64.106,-238.06253 z m 0,214.75953 339.034,-214.75953 -339.034,-214.75962 z"
   id="path1-0948"
   style="stroke-width:1.60269" /><path
   d="m 32077.631,1091.5643 q -21.57,0 -37.613,-16.0435 -16.044,-16.0435 -16.044,-37.6137 V 501.3349 q 0,-21.5702 16.044,-37.6137 16.043,-16.0435 37.613,-16.0435 h 134.143 q 21.571,0 37.614,16.0435 16.044,16.0435 16.044,37.6137 v 536.5722 q 0,21.5702 -16.044,37.6137 -16.043,16.0435 -37.614,16.0435 z m -402.429,0 q -21.57,0 -37.613,-16.0435 -16.044,-16.0435 -16.044,-37.6137 V 501.3349 q 0,-21.5702 16.044,-37.6137 16.043,-16.0435 37.613,-16.0435 h 134.143 q 21.57,0 37.614,16.0435 16.044,16.0435 16.044,37.6137 v 536.5722 q 0,21.5702 -16.044,37.6137 -16.044,16.0435 -37.614,16.0435 z m 402.429,-53.6572 h 134.143 V 501.3349 h -134.143 z m -402.429,0 h 134.143 V 501.3349 h -134.143 z m 0,-536.5722 v 536.5722 z m 402.429,0 v 536.5722 z"
   id="path1-824"
   style="stroke-width:1.34143" /><path
   d="m 33510.262,1103.9186 q -51.963,0 -88.448,-36.3728 -36.486,-36.3728 -36.486,-88.3357 0,-51.96292 36.373,-88.44806 36.373,-36.48514 88.336,-36.48514 51.963,0 88.448,36.3728 36.485,36.3728 36.485,88.33572 0,51.96288 -36.373,88.44798 -36.372,36.4852 -88.335,36.4852 z m 271.997,-399.42672 q -36.098,-77.96311 -108.445,-126.35616 -72.358,-48.39304 -163.665,-48.39304 -95.787,0 -171.666,54.64657 -75.878,54.65905 -108.22,140.36105 -3.769,11.73316 -11.633,20.6953 -7.864,8.97462 -19.285,8.97462 -12.095,0 -18.623,-9.46142 -6.528,-9.44894 -3.17,-20.10864 33.027,-107.15871 123.135,-176.09727 90.109,-68.93856 208.214,-68.93856 93.042,0 169.469,44.49864 76.428,44.51112 122.712,116.80736 V 499.01178 q 0,-10.60977 7.177,-17.78697 7.19,-7.1772 17.812,-7.1772 10.635,0 17.787,7.1772 7.152,7.1772 7.152,17.78697 V 714.0906 q 0,17.1379 -11.596,28.73376 -11.596,11.59586 -28.734,11.59586 h -215.078 q -10.61,0 -17.787,-7.18968 -7.178,-7.18968 -7.178,-17.81194 0,-10.62225 7.178,-17.77449 7.177,-7.15223 17.787,-7.15223 z"
   id="path1-09488"
   style="stroke-width:1.24821" /><path
   d="m 34998.204,914.84858 162.001,-104.3512 q 12.341,-7.8752 12.341,-21.5142 0,-13.639 -12.341,-21.5142 l -162.001,-104.3512 q -12.583,-8.9309 -26.105,-1.5835 -13.524,7.3473 -13.524,23.0976 v 208.7025 q 0,15.7504 13.524,23.0977 13.522,7.3473 26.105,-1.5835 z m -312.23,-83.6393 q 9.016,0 15.55,6.3339 6.534,6.3339 9.374,16.162 7.147,34.0236 19.783,65.4082 12.626,31.3846 31.543,58.9898 5.437,7.7169 5.078,16.7322 -0.37,9.01522 -7.348,15.99312 -5.933,5.9327 -14.293,4.8771 -8.371,-1.0557 -13.808,-8.2868 -26.475,-36.77902 -41.899,-73.44182 -15.433,-36.6628 -22.253,-80.029 -1.541,-8.7724 3.864,-15.7503 5.394,-6.9884 14.409,-6.9884 z m 73.98,-263.2586 q 6.978,6.9778 7.221,15.9931 0.242,9.0153 -4.951,16.4787 -18.917,27.6159 -31.142,58.7154 -12.224,31.0995 -19.371,65.1233 -2.839,9.8281 -9.786,16.1619 -6.935,6.334 -15.951,6.334 -9.015,0 -14.409,-7.5163 -5.405,-7.5057 -3.621,-16.2781 6.819,-42.5534 21.841,-78.4034 15.033,-35.8499 41.255,-72.6394 5.448,-7.2206 13.808,-8.973 8.361,-1.7419 15.106,5.0038 z m 59.117,502.23712 q 6.978,-7.2207 16.521,-7.0623 9.543,0.1689 17.26,5.6055 26.792,18.9173 58.589,32.0708 31.786,13.164 66.379,20.3107 9.015,2.0268 14.938,8.8463 5.933,6.8195 5.933,15.8348 0,9.0153 -7.106,14.2936 -7.104,5.2782 -15.876,2.9242 -45.795,-8.4453 -80.757,-23.4672 -34.953,-15.0219 -71.173,-40.1993 -7.474,-5.4366 -9.458,-13.8079 -1.995,-8.3607 4.75,-15.3492 z m 181.731,-638.01522 q 0,9.8281 -6.208,16.236 -6.218,6.4183 -16.046,9.258 -34.836,7.1468 -66.336,19.7724 -31.511,12.6362 -58.305,31.7963 -7.716,5.4366 -16.858,5.0777 -9.132,-0.3695 -16.109,-7.3474 -6.177,-6.1755 -5.004,-14.663 1.182,-8.4874 8.656,-13.9241 37.022,-25.1772 72.227,-40.0725 35.207,-14.9058 81.814,-23.351 8.772,-1.5413 15.465,3.3359 6.704,4.8665 6.704,13.8817 z m 380.034,356.8106 q 0,-123.353 -78.244,-216.2821 -78.235,-92.9396 -197.935,-116.3329 -8.519,-1.784 -13.967,-8.6035 -5.437,-6.8195 -5.437,-15.5921 0,-8.7724 6.736,-14.1668 6.745,-5.405 15.032,-3.8637 137.235,23.066 226.638,128.3884 89.403,105.3225 89.403,246.4527 0,141.1301 -89.403,246.45252 -89.403,105.3225 -226.638,128.3885 -8.287,1.5412 -15.032,-3.8637 -6.736,-5.3944 -6.736,-14.1669 0,-8.7724 5.437,-15.5919 5.448,-6.8195 13.967,-8.6036 119.7,-23.3932 197.935,-116.3329 78.244,-92.92912 78.244,-216.28202 z"
   id="path1-2"
   style="stroke-width:1.05565" /><path
   d="m 36433.67,758.75903 h -62.552 q -9.599,0 -16.092,-6.50472 -6.494,-6.50471 -6.494,-16.11498 0,-9.61027 6.494,-16.0811 6.493,-6.47084 16.092,-6.47084 h 62.552 v -62.54014 q 0,-9.59897 6.504,-16.09239 6.494,-6.49343 16.115,-6.49343 9.611,0 16.081,6.49343 6.471,6.49342 6.471,16.09239 v 62.54014 h 62.54 q 9.599,0 16.093,6.50471 6.493,6.50472 6.493,16.11499 0,9.61026 -6.493,16.0811 -6.494,6.47084 -16.093,6.47084 h -62.54 v 62.54013 q 0,9.59898 -6.505,16.0924 -6.504,6.49342 -16.115,6.49342 -9.61,0 -16.081,-6.49342 -6.47,-6.49342 -6.47,-16.0924 z m 22.585,236.28155 q -108.524,0 -183.701,-75.13173 -75.166,-75.13173 -75.166,-183.58883 0,-108.4684 75.132,-183.74694 75.131,-75.26724 183.589,-75.26724 108.468,0 183.747,75.1656 75.267,75.1769 75.267,183.70177 0,47.08014 -16.68,91.12249 -16.68,44.04235 -43.782,75.31241 l 266.862,266.86289 q 6.336,6.3466 6.776,15.5503 0.429,9.215 -6.776,16.4199 -7.216,7.2049 -15.991,7.2049 -8.763,0 -15.979,-7.2049 L 36622.69,934.57834 q -33.878,28.84209 -77.921,44.65217 -44.042,15.81007 -88.514,15.81007 z m 0,-45.17164 q 89.903,0 151.8,-61.89644 61.896,-61.88514 61.896,-151.79929 0,-89.91415 -61.896,-151.7993 -61.897,-61.89643 -151.8,-61.89643 -89.914,0 -151.799,61.89643 -61.896,61.88515 -61.896,151.7993 0,89.91415 61.896,151.79929 61.885,61.89644 151.799,61.89644 z"
   id="path1-094882"
   style="stroke-width:1.12929" /><path
   d="m 37969.338,758.78504 q -9.595,0 -16.087,-6.50271 -6.491,-6.50271 -6.491,-16.11001 0,-9.6073 6.491,-16.07614 6.492,-6.46884 16.087,-6.46884 h 159.791 q 9.596,0 16.087,6.50271 6.492,6.5027 6.492,16.11001 0,9.6073 -6.492,16.07614 -6.491,6.46884 -16.087,6.46884 z m 79.896,236.20861 q -108.491,0 -183.645,-75.10852 -75.143,-75.10854 -75.143,-183.53218 0,-108.43492 75.108,-183.69023 75.109,-75.24402 183.533,-75.24402 108.435,0 183.69,75.14241 75.244,75.15371 75.244,183.64508 0,47.06561 -16.674,91.09437 -16.675,44.02876 -43.769,75.28917 l 266.78,266.78047 q 6.333,6.3447 6.773,15.5455 0.43,9.2122 -6.773,16.4149 -7.214,7.2026 -15.986,7.2026 -8.761,0 -15.975,-7.2026 l -266.78,-266.7805 q -33.869,28.83319 -77.897,44.63835 -44.029,15.8052 -88.486,15.8052 z m 0,-45.15767 q 89.875,0 151.752,-61.87734 61.877,-61.86605 61.877,-151.75245 0,-89.8864 -61.877,-151.75245 -61.877,-61.87733 -151.752,-61.87733 -89.887,0 -151.753,61.87733 -61.878,61.86605 -61.878,151.75245 0,89.8864 61.878,151.75245 61.866,61.87734 151.753,61.87734 z"
   id="path1-45"
   style="stroke-width:1.12894" /><path
   stroke="none"
   d="m 39400,575.62476 h 480 v 480.00004 h -480 z"
   fill="none"
   id="path1-1"
   style="stroke-width:20" /><g
   style="fill:none;stroke:currentColor;stroke-width:1.31665;stroke-linecap:round;stroke-linejoin:round;stroke-dasharray:none"
   id="g17"
   transform="matrix(39.362103,0,0,39.362103,39201.1,356.93963)"><path
     stroke="none"
     d="M 0,0 H 24 V 24 H 0 Z"
     fill="none"
     id="path1-11"
     style="stroke-width:1.31665;stroke-dasharray:none" /><path
     d="m 7.904,17.563 a 1.2,1.2 0 0 0 2.228,0.308 l 2.09,-3.093 4.907,4.907 a 1.067,1.067 0 0 0 1.509,0 l 1.047,-1.047 a 1.067,1.067 0 0 0 0,-1.509 l -4.907,-4.907 3.113,-2.09 A 1.2,1.2 0 0 0 17.582,7.904 L 4,4 Z"
     id="path2-5"
     style="stroke-width:1.31665;stroke-dasharray:none" /></g></svg>
